<svg viewBox="0 0 103 22" fill="none" xmlns="http://www.w3.org/2000/svg">
<path d="M24.3769 17.1628C23.1838 17.1628 22.136 16.9147 21.2335 16.4186C20.331 15.9069 19.6197 15.2015 19.0996 14.3023C18.5948 13.3875 18.3424 12.341 18.3424 11.1627C18.3424 9.9534 18.5948 8.87587 19.0996 7.93013C19.6044 6.98438 20.308 6.24019 21.2105 5.69755C22.113 5.15491 23.1608 4.88359 24.354 4.88359C25.5165 4.88359 26.5337 5.13941 27.4056 5.65104C28.2775 6.16267 28.9582 6.86035 29.4477 7.74408C29.9525 8.6123 30.2049 9.62006 30.2049 10.7674C30.2049 10.9224 30.1972 11.1007 30.1819 11.3022C30.1819 11.4883 30.1666 11.6821 30.136 11.8836H20.7975V9.86038H26.6943C26.6637 9.20921 26.4266 8.68982 25.983 8.30222C25.5547 7.89912 25.0194 7.69757 24.3769 7.69757C23.8874 7.69757 23.4438 7.81385 23.0461 8.04641C22.6484 8.27897 22.3272 8.62781 22.0824 9.09293C21.853 9.55805 21.7383 10.1472 21.7383 10.8604V11.5581C21.7383 12.1007 21.8377 12.5813 22.0365 12.9999C22.2507 13.4185 22.549 13.7441 22.9314 13.9767C23.3291 14.2092 23.7956 14.3255 24.331 14.3255C24.8358 14.3255 25.2488 14.2247 25.57 14.0232C25.9066 13.8061 26.1666 13.5348 26.3502 13.2092H29.8607C29.6466 13.9534 29.2794 14.6279 28.7594 15.2325C28.2393 15.8217 27.6045 16.2945 26.8549 16.6511C26.1054 16.9922 25.2794 17.1628 24.3769 17.1628Z" fill="#F2E6CF"/>
<path d="M32.7358 16.8837V0.139372H36.1775V16.8837H32.7358Z" fill="#F2E6CF"/>
<path d="M44.8569 17.1628C43.6638 17.1628 42.616 16.9147 41.7135 16.4186C40.811 15.9069 40.0997 15.2015 39.5796 14.3023C39.0748 13.3875 38.8224 12.341 38.8224 11.1627C38.8224 9.9534 39.0748 8.87587 39.5796 7.93013C40.0844 6.98438 40.788 6.24019 41.6905 5.69755C42.593 5.15491 43.6408 4.88359 44.834 4.88359C45.9965 4.88359 47.0137 5.13941 47.8856 5.65104C48.7575 6.16267 49.4382 6.86035 49.9277 7.74408C50.4325 8.6123 50.6849 9.62006 50.6849 10.7674C50.6849 10.9224 50.6772 11.1007 50.6619 11.3022C50.6619 11.4883 50.6466 11.6821 50.616 11.8836H41.2775V9.86038H47.1743C47.1437 9.20921 46.9066 8.68982 46.463 8.30222C46.0347 7.89912 45.4994 7.69757 44.8569 7.69757C44.3674 7.69757 43.9238 7.81385 43.5261 8.04641C43.1284 8.27897 42.8072 8.62781 42.5624 9.09293C42.333 9.55805 42.2183 10.1472 42.2183 10.8604V11.5581C42.2183 12.1007 42.3177 12.5813 42.5165 12.9999C42.7307 13.4185 43.029 13.7441 43.4114 13.9767C43.8091 14.2092 44.2756 14.3255 44.811 14.3255C45.3158 14.3255 45.7288 14.2247 46.05 14.0232C46.3865 13.8061 46.6466 13.5348 46.8301 13.2092H50.3407C50.1265 13.9534 49.7594 14.6279 49.2393 15.2325C48.7193 15.8217 48.0845 16.2945 47.3349 16.6511C46.5854 16.9922 45.7594 17.1628 44.8569 17.1628Z" fill="#F2E6CF"/>
<path d="M58.0342 17.1628C56.9481 17.1628 56.0074 16.9922 55.212 16.6511C54.4319 16.2945 53.8123 15.8139 53.3535 15.2093C52.9099 14.6046 52.6575 13.9224 52.5963 13.1627H56.015C56.0762 13.4263 56.1833 13.6666 56.3363 13.8837C56.5045 14.0852 56.7263 14.248 57.0017 14.372C57.2923 14.4806 57.6135 14.5348 57.9653 14.5348C58.3478 14.5348 58.6537 14.4883 58.8831 14.3953C59.1279 14.2868 59.3114 14.1472 59.4338 13.9767C59.5562 13.8061 59.6174 13.6278 59.6174 13.4418C59.6174 13.1472 59.5256 12.9224 59.342 12.7674C59.1738 12.6123 58.9214 12.4883 58.5849 12.3953C58.2483 12.2867 57.843 12.186 57.3688 12.0929C56.8181 11.9689 56.2674 11.8294 55.7168 11.6743C55.1814 11.5038 54.6995 11.2945 54.2712 11.0464C53.8582 10.7984 53.5217 10.4805 53.2617 10.0929C53.0169 9.68983 52.8946 9.20146 52.8946 8.62781C52.8946 7.93013 53.0858 7.30222 53.4682 6.74407C53.8506 6.17042 54.4013 5.72081 55.1202 5.39523C55.8391 5.05414 56.711 4.88359 57.7359 4.88359C59.1891 4.88359 60.3287 5.20918 61.1547 5.86034C61.9807 6.51151 62.4702 7.38749 62.6231 8.48827H59.4109C59.3191 8.17819 59.1279 7.94563 58.8372 7.79059C58.5466 7.62005 58.1795 7.53478 57.7359 7.53478C57.2311 7.53478 56.8487 7.62005 56.5887 7.79059C56.3286 7.96114 56.1986 8.18594 56.1986 8.46502C56.1986 8.65106 56.2827 8.82161 56.451 8.97665C56.6346 9.11618 56.8946 9.24022 57.2311 9.34874C57.5676 9.45727 57.9806 9.5658 58.4701 9.67433C59.4032 9.87588 60.2063 10.0929 60.8793 10.3255C61.5677 10.5581 62.1031 10.8991 62.4855 11.3488C62.8679 11.7829 63.0514 12.4185 63.0361 13.2557C63.0514 14.0154 62.8526 14.6899 62.4396 15.279C62.0419 15.8682 61.4682 16.3333 60.7187 16.6744C59.9692 17 59.0743 17.1628 58.0342 17.1628Z" fill="#F2E6CF"/>
<path d="M70.7081 16.8837C69.8668 16.8837 69.1249 16.7519 68.4825 16.4883C67.84 16.2093 67.3429 15.7596 66.9911 15.1395C66.6392 14.5193 66.4633 13.6744 66.4633 12.6046V8.06966H64.4901V5.16267H66.4633L66.8305 1.86031H69.905V5.16267H72.8649V8.06966H69.905V12.6511C69.905 13.1162 70.0045 13.4495 70.2033 13.6511C70.4175 13.8371 70.7769 13.9302 71.2817 13.9302H72.8649V16.8837H70.7081Z" fill="#F2E6CF"/>
<path d="M75.5566 16.8837V5.16267H78.9983V16.8837H75.5566ZM77.2775 3.81382C76.6656 3.81382 76.1685 3.63552 75.7861 3.27893C75.4037 2.92234 75.2125 2.47272 75.2125 1.93008C75.2125 1.37194 75.4037 0.914572 75.7861 0.55798C76.1685 0.201388 76.6656 0.023092 77.2775 0.023092C77.9046 0.023092 78.4094 0.201388 78.7918 0.55798C79.1896 0.914572 79.3884 1.37194 79.3884 1.93008C79.3884 2.47272 79.1896 2.92234 78.7918 3.27893C78.4094 3.63552 77.9046 3.81382 77.2775 3.81382Z" fill="#F2E6CF"/>
<path d="M82.513 16.8837V4.32545C82.513 3.30219 82.6889 2.48823 83.0407 1.88357C83.3926 1.26341 83.882 0.821547 84.5092 0.55798C85.1517 0.278908 85.8859 0.139372 86.7119 0.139372H88.1804V3.09288H87.2626C86.7884 3.09288 86.4519 3.18591 86.253 3.37195C86.0542 3.558 85.9547 3.87583 85.9547 4.32545V16.8837H82.513ZM80.9987 8.06966V5.16267H88.341V8.06966H80.9987Z" fill="#F2E6CF"/>
<path d="M92.2848 22L95.0611 15.5813H94.3728L89.715 5.16267H93.455L96.6443 12.3023L99.3059 5.16267H103L95.933 22H92.2848Z" fill="#F2E6CF"/>
<path d="M14.3544 11.3286C13.48 10.9158 12.4388 11.0895 11.7561 11.7797C10.3081 13.244 7.76899 13.5288 6.06333 12.3579C5.38652 11.8931 4.51432 11.8346 3.77322 12.1845L1.37699 13.3159C4.60106 18.9823 13.9235 18.3231 16.3357 12.2641L14.3547 11.3286H14.3544Z" fill="#F2E6CF"/>
<path d="M4.15473 8.17566C4.44948 4.90679 8.39865 3.04423 11.0593 4.91589C11.7328 5.38949 12.6078 5.45373 13.3508 5.10294L15.7656 3.96272C10.3718 -4.38954 -2.43967 1.62655 0.407676 11.2148L2.82187 10.0749C3.5655 9.72381 4.08006 9.00289 4.15473 8.17537V8.17566Z" fill="#F2E6CF"/>
</svg>
