<svg viewBox="0 0 64 64" fill="none" xmlns="http://www.w3.org/2000/svg">
<path fill-rule="evenodd" clip-rule="evenodd" d="M7.11111 64H56.8889C60.8162 64 64 60.8162 64 56.8889V7.11111C64 3.18375 60.8162 0 56.8889 0H7.11111C3.18375 0 0 3.18375 0 7.11111V56.8889C0 60.8162 3.18375 64 7.11111 64Z" fill="#007EBB"/>
<path fill-rule="evenodd" clip-rule="evenodd" d="M55.1111 55.1111H45.6139V38.9352C45.6139 34.5002 43.9287 32.0218 40.4184 32.0218C36.5997 32.0218 34.6045 34.601 34.6045 38.9352V55.1111H25.4519V24.2963H34.6045V28.447C34.6045 28.447 37.3565 23.3549 43.8956 23.3549C50.4317 23.3549 55.1111 27.3462 55.1111 35.6011V55.1111ZM14.5328 20.2613C11.4152 20.2613 8.88889 17.7153 8.88889 14.5751C8.88889 11.435 11.4152 8.88889 14.5328 8.88889C17.6503 8.88889 20.1751 11.435 20.1751 14.5751C20.1751 17.7153 17.6503 20.2613 14.5328 20.2613ZM9.80671 55.1111H19.3506V24.2963H9.80671V55.1111Z" fill="white"/>
</svg>
