<svg width="2952" height="1024" viewBox="0 0 2952 1024" fill="none" xmlns="http://www.w3.org/2000/svg">
<path d="M1228.94 492.909H1143.42C1142.81 485.833 1141.19 479.414 1138.57 473.652C1136.04 467.89 1132.5 462.936 1127.95 458.792C1123.5 454.546 1118.09 451.311 1111.73 449.087C1105.36 446.762 1098.13 445.599 1090.04 445.599C1075.89 445.599 1063.91 449.036 1054.11 455.911C1044.4 462.785 1037.02 472.641 1031.97 485.479C1027.01 498.317 1024.54 513.733 1024.54 531.727C1024.54 550.732 1027.06 566.654 1032.12 579.492C1037.27 592.229 1044.7 601.833 1054.41 608.302C1064.11 614.671 1075.79 617.855 1089.44 617.855C1097.22 617.855 1104.2 616.895 1110.36 614.974C1116.53 612.952 1121.89 610.071 1126.43 606.331C1130.98 602.591 1134.67 598.092 1137.5 592.836C1140.44 587.478 1142.41 581.463 1143.42 574.791L1228.94 575.398C1227.93 588.539 1224.24 601.934 1217.87 615.581C1211.5 629.127 1202.45 641.662 1190.73 653.186C1179.1 664.609 1164.7 673.808 1147.51 680.783C1130.33 687.758 1110.36 691.246 1087.62 691.246C1059.11 691.246 1033.53 685.13 1010.89 672.898C988.347 660.666 970.505 642.672 957.363 618.917C944.323 595.161 937.803 566.098 937.803 531.727C937.803 497.155 944.474 468.041 957.818 444.386C971.162 420.63 989.156 402.687 1011.8 390.556C1034.44 378.325 1059.72 372.209 1087.62 372.209C1107.23 372.209 1125.27 374.888 1141.75 380.245C1158.23 385.603 1172.68 393.437 1185.12 403.749C1197.55 413.959 1207.56 426.544 1215.14 441.505C1222.72 456.466 1227.32 473.601 1228.94 492.909ZM1380 691.246C1355.14 691.246 1333.71 686.495 1315.71 676.992C1297.82 667.389 1284.02 653.641 1274.32 635.748C1264.71 617.754 1259.91 596.222 1259.91 571.152C1259.91 547.093 1264.76 526.066 1274.47 508.072C1284.17 490.079 1297.87 476.078 1315.56 466.07C1333.25 456.062 1354.13 451.058 1378.18 451.058C1395.77 451.058 1411.7 453.788 1425.95 459.246C1440.2 464.705 1452.38 472.641 1462.49 483.053C1472.6 493.364 1480.39 505.899 1485.84 520.658C1491.3 535.417 1494.03 552.046 1494.03 570.545V589.955H1285.99V543.858H1417C1416.9 537.186 1415.18 531.323 1411.85 526.268C1408.61 521.113 1404.21 517.12 1398.65 514.289C1393.2 511.358 1386.98 509.892 1380 509.892C1373.23 509.892 1367.01 511.358 1361.35 514.289C1355.69 517.12 1351.14 521.062 1347.71 526.117C1344.37 531.171 1342.6 537.085 1342.4 543.858V593.594C1342.4 601.074 1343.97 607.746 1347.1 613.609C1350.23 619.473 1354.73 624.072 1360.59 627.408C1366.46 630.744 1373.53 632.412 1381.82 632.412C1387.59 632.412 1392.84 631.603 1397.59 629.986C1402.45 628.368 1406.59 626.043 1410.03 623.011C1413.46 619.877 1415.99 616.137 1417.61 611.79H1494.03C1491.4 627.964 1485.19 642.015 1475.38 653.944C1465.58 665.771 1452.59 674.97 1436.41 681.541C1420.34 688.011 1401.54 691.246 1380 691.246ZM1611.89 376.455V687H1528.19V376.455H1611.89ZM1766.14 691.246C1741.27 691.246 1719.84 686.495 1701.85 676.992C1683.95 667.389 1670.15 653.641 1660.45 635.748C1650.85 617.754 1646.04 596.222 1646.04 571.152C1646.04 547.093 1650.9 526.066 1660.6 508.072C1670.31 490.079 1684 476.078 1701.69 466.07C1719.38 456.062 1740.26 451.058 1764.32 451.058C1781.91 451.058 1797.83 453.788 1812.08 459.246C1826.34 464.705 1838.52 472.641 1848.63 483.053C1858.74 493.364 1866.52 505.899 1871.98 520.658C1877.44 535.417 1880.17 552.046 1880.17 570.545V589.955H1672.13V543.858H1803.14C1803.04 537.186 1801.32 531.323 1797.98 526.268C1794.75 521.113 1790.35 517.12 1784.79 514.289C1779.33 511.358 1773.11 509.892 1766.14 509.892C1759.37 509.892 1753.15 511.358 1747.49 514.289C1741.83 517.12 1737.28 521.062 1733.84 526.117C1730.5 531.171 1728.74 537.085 1728.53 543.858V593.594C1728.53 601.074 1730.1 607.746 1733.23 613.609C1736.37 619.473 1740.87 624.072 1746.73 627.408C1752.59 630.744 1759.67 632.412 1767.96 632.412C1773.72 632.412 1778.98 631.603 1783.73 629.986C1788.58 628.368 1792.72 626.043 1796.16 623.011C1799.6 619.877 1802.13 616.137 1803.74 611.79H1880.17C1877.54 627.964 1871.32 642.015 1861.52 653.944C1851.71 665.771 1838.72 674.97 1822.55 681.541C1806.47 688.011 1787.67 691.246 1766.14 691.246ZM2127.22 529.908H2050.19C2049.78 525.156 2048.11 521.062 2045.18 517.625C2042.25 514.188 2038.46 511.56 2033.81 509.74C2029.26 507.82 2024.21 506.859 2018.65 506.859C2011.47 506.859 2005.3 508.174 2000.15 510.802C1994.99 513.43 1992.46 517.17 1992.57 522.023C1992.46 525.46 1993.93 528.644 1996.96 531.576C2000.1 534.507 2006.11 536.782 2015.01 538.399L2062.32 546.891C2086.17 551.237 2103.91 558.566 2115.54 568.877C2127.27 579.087 2133.18 592.785 2133.28 609.97C2133.18 626.549 2128.23 640.954 2118.42 653.186C2108.72 665.316 2095.42 674.718 2078.54 681.39C2061.76 687.96 2042.6 691.246 2021.07 691.246C1985.49 691.246 1957.64 683.967 1937.52 669.411C1917.51 654.854 1906.34 635.647 1904.01 611.79H1987.11C1988.22 619.169 1991.86 624.881 1998.02 628.924C2004.29 632.867 2012.18 634.838 2021.68 634.838C2029.36 634.838 2035.68 633.524 2040.63 630.896C2045.69 628.267 2048.27 624.527 2048.37 619.675C2048.27 615.227 2046.04 611.689 2041.69 609.06C2037.45 606.432 2030.78 604.309 2021.68 602.692L1980.43 595.413C1956.68 591.269 1938.89 583.384 1927.06 571.759C1915.23 560.133 1909.37 545.172 1909.47 526.875C1909.37 510.701 1913.61 497.003 1922.21 485.782C1930.9 474.46 1943.28 465.868 1959.36 460.005C1975.53 454.04 1994.69 451.058 2016.83 451.058C2050.49 451.058 2077.03 458.033 2096.43 471.984C2115.94 485.934 2126.21 505.242 2127.22 529.908ZM2304.25 454.091V514.744H2150.79V454.091H2304.25ZM2180.52 398.29H2264.22V612.093C2264.22 615.328 2264.77 618.057 2265.88 620.281C2267 622.404 2268.72 624.022 2271.04 625.134C2273.37 626.144 2276.35 626.65 2279.99 626.65C2282.51 626.65 2285.45 626.347 2288.78 625.74C2292.22 625.134 2294.75 624.628 2296.36 624.224L2308.49 683.058C2304.75 684.17 2299.4 685.534 2292.42 687.152C2285.55 688.769 2277.36 689.83 2267.86 690.336C2248.65 691.347 2232.53 689.376 2219.48 684.422C2206.44 679.368 2196.64 671.432 2190.07 660.616C2183.5 649.799 2180.31 636.253 2180.52 619.978V398.29ZM2338.4 687V454.091H2422.11V687H2338.4ZM2380.25 429.83C2368.93 429.83 2359.23 426.089 2351.14 418.609C2343.05 411.128 2339.01 402.131 2339.01 391.618C2339.01 381.105 2343.05 372.108 2351.14 364.627C2359.23 357.147 2368.93 353.406 2380.25 353.406C2391.68 353.406 2401.38 357.147 2409.37 364.627C2417.46 372.108 2421.5 381.105 2421.5 391.618C2421.5 402.131 2417.46 411.128 2409.37 418.609C2401.38 426.089 2391.68 429.83 2380.25 429.83ZM2529.65 690.639C2514.79 690.639 2501.65 688.213 2490.23 683.361C2478.9 678.407 2470.01 670.927 2463.54 660.919C2457.07 650.911 2453.83 638.174 2453.83 622.707C2453.83 609.97 2456.01 599.103 2460.35 590.106C2464.7 581.008 2470.77 573.578 2478.55 567.816C2486.33 562.054 2495.38 557.657 2505.69 554.624C2516.11 551.591 2527.33 549.62 2539.36 548.71C2552.4 547.699 2562.86 546.486 2570.74 545.071C2578.73 543.555 2584.49 541.482 2588.03 538.854C2591.57 536.125 2593.34 532.536 2593.34 528.088V527.482C2593.34 521.416 2591.01 516.766 2586.36 513.531C2581.71 510.296 2575.75 508.679 2568.47 508.679C2560.48 508.679 2553.96 510.448 2548.91 513.986C2543.96 517.423 2540.97 522.73 2539.96 529.908H2462.93C2463.94 515.755 2468.44 502.715 2476.43 490.786C2484.52 478.757 2496.29 469.153 2511.76 461.976C2527.23 454.697 2546.53 451.058 2569.68 451.058C2586.36 451.058 2601.32 453.029 2614.57 456.972C2627.81 460.813 2639.08 466.222 2648.38 473.197C2657.68 480.071 2664.76 488.158 2669.61 497.458C2674.56 506.657 2677.04 516.665 2677.04 527.482V687H2598.8V654.247H2596.98C2592.33 662.941 2586.67 669.967 2579.99 675.324C2573.42 680.682 2565.89 684.574 2557.4 687C2549.01 689.426 2539.76 690.639 2529.65 690.639ZM2556.95 637.871C2563.31 637.871 2569.28 636.557 2574.84 633.928C2580.5 631.3 2585.1 627.509 2588.64 622.556C2592.17 617.602 2593.94 611.588 2593.94 604.511V585.102C2591.72 586.012 2589.34 586.871 2586.82 587.68C2584.39 588.489 2581.76 589.247 2578.93 589.955C2576.2 590.662 2573.27 591.319 2570.14 591.926C2567.1 592.532 2563.92 593.088 2560.58 593.594C2554.11 594.605 2548.81 596.273 2544.66 598.598C2540.62 600.822 2537.59 603.602 2535.56 606.938C2533.64 610.172 2532.68 613.812 2532.68 617.855C2532.68 624.325 2534.96 629.278 2539.51 632.715C2544.06 636.152 2549.87 637.871 2556.95 637.871Z" fill="#FEFEFE"/>
<path d="M788.275 389.617C780.37 370.266 757.876 361.462 738.931 370.298L690.68 392.789C665.007 404.747 634.792 402.56 611.535 386.413C519.658 322.601 383.282 386.095 373.1 497.533C370.525 525.733 352.749 550.309 327.069 562.273L277.14 585.546C259.339 593.842 251.263 614.706 258.843 632.817L260.643 637.127C268.72 656.421 291.296 665.034 310.178 656.02L356.947 633.694C375.161 624.991 395.766 623.472 414.571 629.073C423.169 631.291 431.437 634.972 438.999 640.102C455.654 651.379 474.606 658.709 494.353 662.263C577.104 675.091 666.253 615.602 673.605 526.013C675.913 497.807 693.441 473.084 718.993 460.892L770.169 436.455C787.665 428.102 795.608 407.556 788.275 389.611V389.617ZM629.87 519.204L586.427 535.275C567.832 542.153 553.166 556.813 546.285 575.4L530.208 618.825C527.906 625.049 519.098 625.049 516.796 618.825L500.719 575.4C493.838 556.813 479.172 542.153 460.577 535.275L417.134 519.204C410.908 516.903 410.908 508.099 417.134 505.798L460.577 489.727C479.172 482.849 493.838 468.189 500.719 449.602L516.796 406.177C519.098 399.953 527.906 399.953 530.208 406.177L546.285 449.602C553.166 468.189 567.832 482.849 586.427 489.727L629.87 505.798C636.096 508.099 636.096 516.903 629.87 519.204Z" fill="#FEFEFE"/>
</svg>
