<svg viewBox="0 0 832 256" fill="none" xmlns="http://www.w3.org/2000/svg">
<path d="M83.7163 1.92055e-05C56.4197 1.92055e-05 41.8606 1.82195 35.489 1.82195C24.8728 1.82195 15.4705 1.51703 6.06433 1.51703C0.909942 1.51703 0 1.82244 0 3.94494C0 7.58204 1.21176 7.89001 14.8651 7.89001C23.3541 7.89001 28.2128 10.6201 28.2128 34.5821V174.114C28.2128 178.663 27.6022 179.271 13.9542 179.271C7.28005 179.271 5.45836 179.874 5.45836 182.911C5.45836 185.943 7.58213 186.246 10.6191 186.246C20.3229 186.246 26.997 185.034 39.7354 185.034C53.0812 185.034 65.8226 188.064 78.5634 188.064C120.728 188.064 148.939 171.992 148.939 138.018C148.939 111.629 131.037 101.313 116.781 94.0293C110.715 90.9971 104.951 89.481 104.951 88.8763C104.951 87.9688 111.625 84.6298 117.391 80.6854C127.1 74.0137 140.142 63.3923 140.142 41.8575C140.142 20.3203 123.156 1.92055e-05 83.7163 1.92055e-05ZM603.449 0.346927C601.866 0.346927 591.839 4.83229 571.261 6.15175C566.777 6.4152 564.663 6.14886 564.663 9.31516C564.663 12.2205 567.304 12.7494 572.053 12.7494C583.923 12.7494 585.508 12.7481 585.508 29.3673V174.739C585.508 179.489 581.021 179.225 570.205 179.225C563.869 179.225 563.607 180.813 563.607 182.66C563.607 184.77 564.133 185.297 570.205 185.297C573.898 185.297 587.884 184.771 596.851 184.771C601.605 184.771 607.408 185.297 611.365 185.297C620.862 185.297 622.708 185.297 622.708 182.66C622.708 180.545 623.235 178.963 610.042 178.963C605.295 178.963 603.448 176.06 603.448 154.165C603.448 146.51 604.767 125.671 604.767 25.1465C604.767 17.2332 606.086 7.73032 606.086 4.56401C606.086 1.66116 604.766 0.346927 603.449 0.346927ZM384.408 0.609862C382.032 0.609862 366.463 6.41126 347.47 6.41126C344.568 6.41126 344.04 7.4676 344.04 10.1046C344.04 11.956 345.095 12.7498 355.909 12.7498C363.032 12.7498 365.144 15.1247 365.144 33.8543C365.144 89.5257 364.352 167.62 364.352 175.27C364.352 179.226 361.978 179.226 353.009 179.226C346.676 179.226 345.359 180.545 345.359 182.66C345.359 185.034 346.942 185.298 353.009 185.298C356.702 185.298 366.465 184.772 375.44 184.772C383.882 184.772 396.014 185.298 399.97 185.298C405.774 185.298 407.094 185.297 407.094 182.66C407.094 180.545 406.04 179.226 399.97 179.226C383.614 179.226 384.145 179.228 384.145 166.831V150.209C384.145 147.833 387.837 145.984 392.058 143.345C396.541 140.442 400.233 137.806 401.289 137.806C402.872 137.806 413.959 154.431 425.039 167.094C436.118 179.757 438.494 186.353 443.246 186.353C446.94 186.353 454.853 186.09 458.02 186.09C460.393 186.09 463.822 186.353 466.988 186.353C472.791 186.353 474.638 185.825 474.638 183.979C474.638 181.869 472.53 180.544 466.199 180.544C457.23 180.544 448.787 167.619 439.812 156.803C421.346 134.638 416.6 129.628 416.6 127.252C416.6 125.405 432.956 113.8 446.151 100.869C454.327 92.9554 463.295 81.6129 463.295 79.2345C463.295 78.4417 462.242 78.1787 460.131 78.1787C456.968 78.1787 441.66 78.9677 438.23 78.9677C435.064 78.9677 430.054 78.1787 427.417 78.1787C423.987 78.1787 422.668 78.7052 422.668 80.8201C422.668 83.1961 423.986 83.7206 427.943 83.7206C439.549 83.7206 440.342 84.2497 440.342 88.4698C440.342 94.0096 437.967 98.4957 427.68 108.256C419.237 116.174 391.793 140.444 385.197 140.444C384.406 140.444 384.145 139.652 384.145 138.595C384.145 95.5918 385.723 66.0436 385.723 25.9404C385.723 17.4977 386.253 6.41074 386.253 2.98343C386.253 1.40027 385.725 0.609862 384.408 0.609862ZM74.6125 7.28017C102.216 7.28017 114.957 36.4018 114.957 51.5699C114.957 75.5318 104.948 81.2956 96.1512 87.9697C96.1512 87.9697 83.4084 86.1478 64.9082 86.1478C57.6242 86.1478 53.6833 86.7523 53.6833 81.8979V16.0788C53.6833 10.0121 54.5953 7.28017 74.6125 7.28017ZM207.636 75.5386C183.628 75.5386 158.561 97.7028 158.561 134.903C158.561 178.963 190.751 189.521 212.383 189.521C233.755 189.521 256.181 172.893 256.181 171.576C256.181 171.047 255.39 169.465 254.07 169.465C252.489 169.465 242.991 175.799 225.579 175.799C205.525 175.799 177.291 166.036 177.291 129.626C177.291 123.559 178.086 122.24 182.311 121.976C212.383 120.13 238.768 114.329 245.627 112.741C252.755 111.158 256.448 110.104 256.448 109.048C256.448 106.937 252.224 100.604 247.735 95.3299C238.239 84.2479 221.358 75.5386 207.636 75.5386ZM515.275 75.5386C491.269 75.5386 466.2 97.7028 466.2 134.903C466.2 178.963 498.388 189.521 520.022 189.521C541.391 189.521 563.82 172.893 563.82 171.576C563.82 171.047 563.026 169.465 561.709 169.465C560.125 169.465 550.626 175.799 533.214 175.799C513.162 175.799 484.933 166.036 484.933 129.626C484.933 123.559 485.725 122.24 489.945 121.976C520.023 120.13 546.402 114.329 553.267 112.741C560.389 111.158 564.084 110.104 564.084 109.048C564.084 106.937 559.864 100.604 555.378 95.3299C545.877 84.2479 528.997 75.5386 515.275 75.5386ZM667.453 75.5386C643.442 75.5386 618.378 97.7028 618.378 134.903C618.378 178.963 650.565 189.521 672.2 189.521C693.571 189.521 715.998 172.893 715.998 171.576C715.998 171.047 715.204 169.465 713.887 169.465C712.304 169.465 702.809 175.799 685.392 175.799C665.343 175.799 637.112 166.036 637.112 129.626C637.112 123.559 637.904 122.24 642.124 121.976C672.201 120.13 698.586 114.329 705.445 112.741C712.568 111.158 716.262 110.104 716.262 109.048C716.262 106.937 712.043 100.604 707.557 95.3299C698.06 84.2479 681.17 75.5386 667.453 75.5386ZM299.45 77.3835C295.225 77.3835 290.211 78.7022 285.991 78.7022C280.715 78.7022 275.701 78.1725 266.731 78.1725C262.243 78.1725 262.508 78.9677 262.508 82.1364C262.508 85.0393 262.507 84.774 267.261 84.774C282.034 84.774 281.504 85.3016 281.504 103.241V175.534C281.504 179.227 280.715 179.49 269.898 179.49C263.563 179.49 263.3 180.016 263.3 182.658C263.3 185.297 263.826 185.295 269.898 185.295C273.592 185.295 282.563 183.977 291.533 183.977C299.978 183.977 317.653 185.295 321.346 185.295C328.206 185.295 328.47 185.561 328.47 182.658C328.47 180.28 328.206 179.49 321.346 179.49C301.824 179.49 301.035 179.488 301.035 166.562V112.208C301.035 101.128 306.835 94.7965 322.135 94.7965C335.33 94.7965 338.498 105.614 342.191 105.614C343.774 105.614 347.992 94.0057 347.992 91.3663C347.992 84.5092 335.858 78.7006 331.104 78.7006C318.704 78.7006 306.31 92.422 302.353 92.422C301.297 92.422 301.034 90.5762 301.034 88.2027C301.034 87.4099 301.56 81.6056 301.56 80.2859C301.56 78.171 300.506 77.3835 299.45 77.3835ZM826.256 77.6464C822.563 77.6464 815.439 78.7022 811.483 78.7022C804.355 78.7022 799.607 78.1762 792.486 78.1762C787.736 78.1762 786.944 78.1744 786.944 81.6065C786.944 84.2459 788 84.248 796.18 84.248C805.147 84.248 805.144 85.8291 805.144 93.7425C805.144 97.4357 795.649 124.879 789.319 143.872C785.098 156.276 783.515 159.967 781.669 159.967C780.612 159.967 777.445 155.483 775.33 149.943C759.504 109.308 752.644 100.073 752.644 92.4228C752.644 86.3561 754.227 84.7729 760.557 84.7729C766.097 84.7729 767.154 84.509 767.154 82.1354C767.154 79.2277 766.097 78.1751 760.557 78.1751C752.117 78.1751 742.879 78.9642 735.492 78.9642C729.162 78.9642 727.317 78.4382 719.93 78.4382C715.181 78.4382 714.392 79.7594 714.392 82.1354C714.392 84.5089 714.654 84.7729 719.93 84.7729C724.677 84.7729 726.526 86.0943 733.122 101.921C747.634 136.221 768.737 185.03 768.737 187.933C768.737 195.846 746.053 226.977 736.552 238.848C727.583 250.196 715.181 251.779 715.181 253.362C715.181 254.681 717.818 255.999 722.305 255.999C728.108 255.999 729.954 253.89 737.867 252.836C743.675 252.043 746.841 251.778 749.744 245.975C758.184 228.561 770.059 207.188 786.681 166.823C807.523 116.171 819.134 84.5085 824.937 84.5085C828.104 84.5085 831.794 83.1886 831.794 80.8151C831.794 77.9098 830.476 77.6464 826.256 77.6464ZM204.997 81.0805C217.135 81.0805 232.699 100.601 232.699 107.197C232.699 108.78 232.438 109.308 229.535 109.835C209.747 113.001 195.5 116.436 181.781 116.436C178.612 116.436 178.613 116.17 178.613 114.85C178.613 111.152 184.948 81.0805 204.997 81.0805ZM512.631 81.0805C524.772 81.0805 540.337 100.601 540.337 107.197C540.337 108.78 540.073 109.308 537.17 109.835C517.381 113.001 503.135 116.436 489.419 116.436C486.253 116.436 486.251 116.17 486.251 114.85C486.251 111.152 492.582 81.0805 512.631 81.0805ZM664.809 81.0805C676.945 81.0805 692.515 100.601 692.515 107.197C692.515 108.78 692.25 109.308 689.347 109.835C669.559 113.001 655.314 116.436 641.593 116.436C638.426 116.436 638.425 116.17 638.425 114.85C638.425 111.152 644.755 81.0805 664.809 81.0805ZM64.6258 91.9055C97.6866 91.9055 120.131 113.14 120.131 140.441C120.131 166.83 103.147 182.608 80.0953 182.608C70.3866 182.608 60.6838 180.483 57.3443 176.841C54.6171 173.807 53.7043 156.823 53.7043 154.09V99.79C53.7043 93.1183 56.1317 91.9055 64.6258 91.9055ZM215.042 215.733C208.81 215.733 203.611 219.493 203.611 225.723C203.611 237.564 219.212 235.453 219.212 242.044C219.212 244.669 217.203 246.934 213.137 246.934C210.407 246.934 206.959 245.651 204.073 243.694L201.5 248.226C204.384 250.231 208.295 252.141 213.137 252.141C219.882 252.141 225.494 247.809 225.494 241.838C225.494 229.839 209.893 233.448 209.893 225.464C209.893 222.839 211.644 220.936 215.043 220.936C218.08 220.936 220.446 221.966 223.074 223.303L225.288 218.874C222.305 217.022 218.748 215.733 215.042 215.733ZM339.416 215.733C328.81 215.733 324.075 223.304 324.075 233.91C324.075 244.002 328.759 252.141 339.416 252.141C350.074 252.141 354.761 244.002 354.761 233.91C354.761 223.304 350.022 215.733 339.416 215.733ZM422.096 215.733C411.49 215.733 406.286 223.355 406.286 233.963C406.286 244.775 411.028 252.141 421.89 252.141C426.627 252.141 431.056 250.18 434.659 246.885L431.518 242.871C428.635 245.498 425.341 246.934 422.199 246.934C415.659 246.934 412.567 242.253 412.567 233.91C412.567 225.621 415.866 220.936 422.096 220.936C425.443 220.936 427.914 222.122 430.642 224.385L433.836 220.265C430.128 217.226 426.472 215.733 422.096 215.733ZM556.149 215.733C545.541 215.733 540.808 223.304 540.808 233.91C540.808 244.002 545.492 252.141 556.149 252.141C566.807 252.141 571.495 244.002 571.495 233.91C571.495 223.304 566.756 215.733 556.149 215.733ZM63.4451 216.248L57.5219 216.869V251.573H63.6506V227.888H63.7534L78.6337 251.573H84.0919V216.301H77.9633V239.475H77.8111L63.4451 216.248ZM142.051 216.248V251.573H163.472L163.937 246.37H148.18V236.384H161.414V231.181H148.18V221.45H163.06V216.248H142.051ZM362.644 216.248V251.573H368.769V236.384H381.747V231.181H368.769V221.45H383.237V216.248H362.644ZM457.369 216.248L450.215 216.815L437.805 251.573H443.522L446.453 243.073H460.666L463.601 251.573H469.887L457.369 216.248ZM516.261 216.248V251.573H522.386V236.384H535.364V231.181H522.386V221.45H536.858V216.248H516.261ZM612.738 216.248L606.815 216.869V251.573H612.94V227.888H613.047L627.923 251.573H633.381V216.301H627.256V239.475H627.1L612.738 216.248ZM671.78 216.248L664.622 216.815L652.212 251.573H657.929L660.864 243.073H675.073L678.008 251.573H684.294L671.78 216.248ZM22.9077 216.301V239.315C22.9077 247.245 27.2829 252.14 35.9353 252.14C44.5317 252.14 48.91 247.247 48.91 239.265V216.301H42.7812V239.677C42.7812 244.055 40.9316 246.934 35.9359 246.934C30.8889 246.934 29.0335 244.053 29.0335 239.623V216.301H22.9077ZM92.82 216.301V251.573H98.9454V216.301H92.82ZM104.967 216.301L117.118 251.573H123.861L136.065 216.301H130.039L123.297 236.022C123.297 236.022 122.628 238.027 120.876 244.052H120.567C118.867 238.027 118.2 235.968 118.2 235.968L111.454 216.301H104.967ZM172.045 216.301V251.573H178.17V237.462H181.105C183.32 237.462 184.608 239.526 185.637 241.636L190.527 251.572H197.273L190.527 238.854C190.117 238.029 189.498 237.1 188.366 236.429V236.33C192.998 234.579 195.009 230.976 195.009 226.756C195.009 220.628 191.146 216.301 183.369 216.301H172.045ZM232.79 216.301V251.573H238.915V216.301H232.79ZM245.967 216.301V221.553H255.29V251.573H261.415V221.499H270.322L270.787 216.301H245.967ZM274.797 216.301L285.919 236.483V251.573H292.044V236.483L303.171 216.301H296.42L291.427 226.344C291.427 226.344 290.809 227.628 289.06 231.543H288.908C287.052 227.628 286.381 226.344 286.381 226.344L281.697 216.301H274.797ZM474.85 216.301V251.573H495.703L496.168 246.37H480.979V216.301H474.85ZM502.133 216.301V251.573H508.258V216.301H502.133ZM576.778 216.301V251.573H582.906V237.462H585.841C588.054 237.462 589.344 239.526 590.373 241.636L595.264 251.572H602.01L595.264 238.854C594.854 238.029 594.234 237.1 593.102 236.429V236.33C597.735 234.579 599.746 230.976 599.746 226.756C599.746 220.628 595.882 216.301 588.106 216.301H576.778ZM641.08 216.301V251.573H647.205V216.301H641.08ZM339.407 220.936C345.484 220.936 348.418 226.238 348.418 233.91C348.418 241.582 345.435 246.934 339.407 246.934C333.333 246.934 330.348 241.579 330.348 233.856C330.348 226.184 333.333 220.936 339.407 220.936ZM556.136 220.936C562.212 220.936 565.146 226.238 565.146 233.91C565.146 241.582 562.161 246.934 556.136 246.934C550.059 246.934 547.076 241.579 547.076 233.856C547.076 226.184 550.059 220.936 556.136 220.936ZM178.17 221.553H183.216C187.388 221.553 188.728 223.51 188.728 226.805C188.728 230.152 187.027 232.313 183.319 232.313H178.17V221.553ZM582.905 221.553H587.952C592.123 221.553 593.463 223.51 593.463 226.805C593.463 230.152 591.763 232.313 588.055 232.313H582.905V221.553ZM453.433 222.479H453.536C455.956 229.79 456.368 230.922 456.368 230.922L459.097 238.698H447.922L450.651 230.922C450.651 230.922 451.065 229.79 453.433 222.479ZM667.844 222.479H667.947C670.367 229.79 670.783 230.922 670.783 230.922L673.508 238.698H662.333L665.066 230.922C665.066 230.922 665.476 229.79 667.844 222.479Z" fill="#F2E6CF"/>
</svg>
