<svg viewBox="0 0 784 256" fill="none" xmlns="http://www.w3.org/2000/svg">
<path d="M32.0754 8.48389L0 39.8855V124.262L27.8829 152.724H40.6693C40.3579 153.58 39.9498 154.901 40.8374 156.193C41.8028 157.625 43.4688 157.625 44.1072 157.625C44.8545 157.625 45.8977 157.532 47.5015 157.314H47.5204C47.5204 157.314 48.1899 157.909 46.1502 158.578C44.4687 159.17 43.002 160.148 42.5192 161.829C42.4873 161.953 42.4756 162.082 42.4445 162.19H0.0126509L0.000182786 205.317L32.0756 236.831H116.433L148.509 205.362V124.54L120.62 96.1219H96.9727C96.9567 96.1219 96.9352 96.1095 96.9352 96.1095C95.8921 95.4867 94.8208 94.8296 93.8399 94.1912L93.4787 93.9608L93.4164 93.9234C92.887 93.5966 92.3296 93.1948 91.7224 92.6654C91.1931 92.245 90.754 91.8246 90.427 91.4509L90.3336 91.3575C89.7108 90.7035 89.1659 90.0776 88.7454 89.5327C92.4354 90.5915 96.4557 90.8592 98.3862 90.9215H98.6167C98.741 90.9215 98.8691 90.9403 98.9779 90.9403L99.146 90.9528C99.6131 90.9847 99.9712 91.0615 100.205 91.1396C100.454 91.2329 100.675 91.3453 100.877 91.4385L101.874 91.8122C102.107 91.8744 102.357 91.887 102.621 91.887C104.069 91.887 105.424 91.015 106.047 89.6449C106.249 89.1778 106.56 88.2467 106.327 87.0167L148.504 87.048V39.9345L116.435 8.4828H32.0776L32.0754 8.48389Z" fill="#F2E6CF"/>
<path d="M144.678 41.6011L114.884 12.376H33.6236L3.82217 41.5537V122.658L29.4654 148.816L46.0006 148.832C44.1477 150.498 43.5717 152.226 43.2758 153.067C42.6375 154.92 41.9679 155.449 47.7754 154.639C49.6127 154.375 52.9603 153.191 54.5327 152.133C56.0741 151.074 59.1257 151.93 58.861 154.219C57.4286 157.722 53.7543 159.918 50.2507 160.354C42.1856 161.366 45.6733 164.371 45.6733 164.371C46.5608 164.978 47.1992 165.57 47.6507 166.099H43.7271V166.083H3.83656L3.82061 203.653L33.6062 232.925H114.883L144.667 203.7V126.162L119.024 100.036H98.301C96.6506 98.9305 94.424 97.7005 92.3999 96.3771C92.3999 96.3611 92.3999 96.3611 92.3839 96.3611C91.6055 95.9096 90.8425 95.3492 90.1108 94.7108C89.5036 94.2281 88.9587 93.7143 88.4915 93.2005C86.701 91.3321 85.362 89.3858 85.0038 88.4827C84.3343 86.8324 84.4901 84.7459 86.0003 85.6023C89.8306 87.8132 96.121 88.2336 98.4563 88.3115C98.7209 88.3115 100.605 88.5295 101.056 88.6694C101.523 88.8564 102.24 89.1988 102.24 89.1988C103.189 89.6036 104.902 88.2957 102.925 85.8824C102.411 85.0572 101.633 84.1073 100.714 83.1421H144.666V41.6013" fill="#181818"/>
<path d="M35.1553 16.2691L7.64422 43.221V121.032L31.0617 144.919H53.046C56.798 143.271 57.5926 143.412 58.6351 141.31C58.791 140.976 58.9455 140.011 58.9618 139.068C59.0086 138.801 59.4764 135.964 58.1057 136.655C55.7548 137.835 51.0055 134.717 47.4554 136.573C43.9053 138.407 46.5057 134.145 47.004 133.41C47.004 133.41 48.9034 130.907 51.7681 129.252C51.8772 129.192 51.9708 129.133 52.048 129.066C52.3287 128.91 52.6094 128.776 52.9057 128.635C55.085 127.618 61.2963 123.482 62.4176 122.19C63.0873 121.44 64.271 119.725 64.3177 118.774C64.5197 117.95 64.6764 116.643 63.8826 116.131C62.699 115.351 61.7485 116.873 59.8959 117.705C58.0425 118.529 56.6414 118.871 54.9907 118.93C53.4032 118.982 51.8772 118.373 50.9275 118.514C49.9771 118.67 49.4165 117.95 51.1607 116.19C51.9545 115.396 52.2983 115.039 52.6718 114.772C56.8136 112.114 60.5345 112.084 62.621 107.361C62.621 107.361 64.2405 103.129 61.1107 104.933C59.3984 105.928 58.4643 107.361 53.5591 107.361C48.6702 107.361 46.7545 109.686 45.9295 110.695C45.9295 110.695 42.5985 115.351 43.4234 108.824C44.2647 102.32 45.5248 99.0005 48.5923 96.461C51.2387 94.2854 57.8086 91.3598 60.1759 88.1371C61.3899 86.9342 64.4425 83.4443 62.6671 80.4897C61.9193 79.2438 60.0986 82.4716 58.2148 82.8874C56.0659 83.4517 53.3415 84.1497 51.255 83.7265C48.6702 83.2141 47.0196 84.1943 46.0543 84.6324C45.089 85.0705 43.2668 83.6819 45.4929 81.1439C48.4824 77.7342 55.708 73.2819 60.5657 70.6192C61.2355 70.3385 62.869 69.6227 64.3638 68.673C64.395 68.6566 64.4261 68.641 64.4425 68.641C64.816 68.4695 65.361 68.1421 65.6721 67.7218C66.731 66.8337 67.4631 65.8387 67.2136 64.8266C66.9961 63.9081 66.5431 63.5962 65.1108 63.4403C63.9747 63.3312 62.0916 64.6551 60.5033 64.5311C58.0745 64.3284 54.5081 64.8883 55.6917 63.1604C56.7966 61.5565 58.5868 60.5281 59.1007 60.2481C60.0971 59.7967 61.4367 59.2056 63.4141 58.3175C66.5127 56.9164 66.0761 53.3982 64.8776 53.2742C63.0086 53.0715 57.9646 54.6895 61.5139 50.6419C61.5139 50.6419 63.1965 48.9452 64.8932 47.8396C66.232 47.0614 67.3376 46.7651 68.6608 46.2817C69.4865 45.9862 71.6518 44.0712 66.5134 43.8685C66.5134 43.8685 63.648 43.9464 64.193 42.6232C64.6445 41.7515 67.1676 40.1632 67.1676 40.1632C67.1676 40.1632 69.1903 38.7769 70.016 37.9519C70.8097 37.1886 71.3704 36.5819 71.3236 35.8966C71.2924 35.1184 69.2682 34.1531 68.4114 33.063C67.8047 32.2841 68.3185 32.0049 68.6608 31.9114C68.848 31.8809 69.0663 31.849 69.3314 31.849C71.4171 31.8646 72.009 29.7781 73.2267 24.3598C73.5831 22.7403 73.6128 22.3987 74.14 22.3831C74.192 22.3831 74.2217 22.3987 74.2514 22.3987C74.2514 22.3987 74.7638 25.1387 75.5137 28.2061C76.1523 29.9028 76.8503 30.6194 78.0829 30.603C78.3279 30.603 78.5507 30.6335 78.7364 30.6654C79.0779 30.7589 79.6051 31.0404 78.9814 31.8186C78.5136 32.426 77.1176 33.4068 77.0062 33.9986C76.6053 35.6798 78.2091 36.2871 79.8427 36.4119C82.1594 36.5671 81.1942 38.015 78.6918 39.8677C76.2785 41.6579 82.4565 45.4887 82.4565 45.4887C85.9761 48.2138 83.4663 48.9133 82.7535 49.3031C82.0332 49.6766 80.0581 50.8914 82.0332 51.6696C84.0307 52.4329 86.7706 55.1885 86.7706 55.1885C90.3051 59.236 85.2707 57.6336 83.4069 57.8208C82.204 57.9448 81.7733 61.4785 84.8697 62.8648C89.5848 64.9974 90.6318 65.3561 92.2951 66.602C95.4063 68.9061 93.7579 70.8679 89.867 70.1826C89.867 70.1826 87.3795 69.5603 85.6345 69.9026C84.543 70.1053 83.793 70.3541 83.2807 70.6192C83.0134 71.0239 82.3971 72.627 87.8102 74.2925C90.3942 75.1019 93.602 77.0495 96.4533 79.2757L140.865 79.2296L140.857 43.2484L113.346 16.2661H35.1568L35.1553 16.2691ZM102.215 103.926C103.493 106.042 104.235 108.812 104.785 112.881C104.799 115.324 101.577 114.136 100.53 113.497C99.8022 113 98.8369 112.539 97.5894 112.242C95.2356 111.678 89.6368 109.22 88.1072 108.671C86.5479 108.099 85.4118 109.25 85.2261 109.688H85.241C84.84 110.43 85.6642 111.93 85.6642 111.93C87.8621 116.913 91.909 116.645 96.3568 119.838C102.475 124.197 99.2081 125.118 97.9458 124.464C96.7058 123.796 94.6489 124.212 94.6489 124.212C89.7111 125.571 88.2334 123.514 85.3375 122.749C82.4565 121.969 84.8252 125.556 85.8647 126.751C86.9711 128.043 93.201 132.187 95.3618 133.197C100.084 135.395 102.542 138.959 104.005 143.488C105.393 147.773 103.879 146.837 102.757 146.31C101.636 145.775 101.31 144.624 98.525 144.691C95.7256 144.751 94.1514 144.55 92.154 142.976C91.6268 142.567 91.2036 142.1 90.8471 141.714C90.8174 141.699 90.8026 141.684 90.7878 141.669C88.872 140.206 89.2433 145.062 89.6368 145.857C91.0179 148.641 91.9535 147.505 99.9284 151.76C103.708 153.78 104.599 156.49 105 157.626C105.639 159.468 106.292 159.995 100.5 159.185C98.6512 158.933 95.3172 157.752 93.7282 156.676C92.206 155.621 89.1393 156.475 89.414 158.762C90.8471 162.267 94.5227 164.465 98.0275 164.896C101.094 165.289 102.483 165.957 103.04 166.641C104.718 168.556 101.607 171.363 101.607 171.363C100.047 173.167 101.733 175.284 102.884 175.907C104.755 176.858 108.378 179.034 109.581 182.152C115.871 198.34 109.782 193.699 106.804 191.85C103.819 189.993 98.1315 185.234 92.9485 185.65C87.7656 186.058 86.0355 186.34 82.954 183.89C79.8873 181.447 80.1843 185.405 80.1843 185.405V204.926C80.3699 209.299 81.1793 213.472 84.6544 217.007C87.4983 219.925 89.6665 219.376 93.6836 224.284C95.5326 226.541 101.577 228.969 105.609 229.014L113.346 229.029L140.857 202.045V127.761L117.46 103.926H102.215ZM7.66055 169.989L7.64496 201.985L35.156 228.984H43.9996C52.3146 228.576 55.4281 222.13 57.9505 218.165C59.8499 215.158 63.2136 212.604 65.3469 210.421C67.6042 208.134 68.0096 202.899 68.0713 197.233V185.405L68.0876 185.523V182.694H68.1032V180.808H68.1047V175.269C68.1047 174.081 66.7347 173.992 63.7452 177.229C60.7402 180.452 55.7117 180.184 52.8002 180.452C49.8887 180.712 41.5121 185.078 39.1137 188.204C37.6346 190.149 35.5325 188.545 36.3886 184.714H36.3574C36.7621 182.991 37.5091 180.667 38.7083 177.6C40.3582 173.323 46.5555 170.814 46.5555 170.814C46.5555 170.814 47.1941 170.531 47.7547 169.989H7.66055Z" fill="#F2E6CF"/>
<path d="M773.416 0L774.479 0.911032V1.67023L774.327 2.27758V2.7331L774.176 3.64413V4.25148L773.72 10.6287V11.0842C773.394 18.1147 773.343 25.1553 773.568 32.1898C773.613 48.5883 773.613 64.987 773.568 81.3855V81.841C773.575 88.1677 773.575 94.4943 773.568 100.821C773.265 105.224 773.265 105.224 774.631 109.324L775.087 109.628L775.39 109.779C777.668 111.45 781.16 111.45 783.893 111.601V116.308L782.527 116.46L780.705 116.612H780.249C774.005 117.271 767.778 118.081 761.573 119.042C760.966 119.042 760.51 119.193 760.055 119.497C759.599 119.801 759.447 119.801 758.992 119.801L757.777 119.193L756.866 118.586V117.068C756.709 115.803 756.557 114.538 756.411 113.272L751.248 116.157L750.944 116.308C747.756 117.827 744.415 118.89 740.923 119.497L740.316 119.649L738.645 119.801H738.19C733.938 120.104 729.687 119.801 725.587 118.586L725.284 118.434C721.079 117.249 717.18 115.17 713.852 112.34C710.524 109.51 707.846 105.995 706 102.036L705.848 101.732C702.204 93.6845 701.445 84.1186 702.508 75.4638V74.8565C703.723 66.0498 706.152 57.5469 712.529 51.0178L712.833 50.7141C714.048 49.3476 715.414 48.1329 716.933 47.07L717.388 46.7663C725.587 40.8446 735.609 38.7189 745.478 39.4781H746.086C749.688 39.7367 753.283 40.0911 756.866 40.5409C756.823 34.0624 756.773 27.584 756.714 21.1056C757.17 15.1839 757.17 15.1839 755.196 9.86951C753.07 8.19929 750.185 8.19929 747.604 8.04745V4.40332L749.426 4.25148C755.955 3.94781 762.484 2.58126 768.861 1.21471H769.165C771.139 0.759193 771.139 0.759193 772.809 0H773.416ZM727.713 56.6358C722.399 62.2539 721.032 70.9087 721.032 78.3488V78.9561C721.029 79.9684 721.029 80.9806 721.032 81.9929C720.88 89.433 722.551 97.1767 727.865 102.795L728.169 103.25C730.902 106.135 734.698 107.654 738.494 108.565L738.797 108.716C741.097 109.165 743.444 109.318 745.782 109.172C747.908 109.172 750.033 109.02 752.159 108.261H752.463C754.437 107.654 756.259 106.743 758.081 105.832C758.174 89.585 758.225 73.3382 758.233 57.0913C758.233 56.1803 758.233 56.1803 757.929 55.4211L756.562 54.5101C748.211 49.3476 734.698 49.4994 727.713 56.6358ZM439.22 41.7556C439.827 42.0593 440.131 42.5148 440.434 42.9703L440.586 44.3369C440.586 45.6599 440.586 47.1135 440.586 48.4365L441.042 48.1329C445.597 45.2479 450.607 43.1222 455.922 42.2111H456.226C460.477 41.3001 465.336 41.452 469.587 42.2111L470.043 42.363C474.606 43.1324 478.836 45.2473 482.19 48.4365C484.923 51.1696 487.808 55.7248 488.112 59.6726L488.263 60.1281V60.4318C488.618 65.8474 488.972 71.263 489.326 76.6785C489.437 85.586 489.487 94.494 489.478 103.402C489.326 108.868 489.326 108.868 491.452 113.727C493.426 115.701 496.007 116.005 498.588 116.157V119.801L495.704 119.953L495.4 119.801C494.134 119.713 492.868 119.612 491.604 119.497L489.326 119.345C486.289 119.209 483.252 119.057 480.216 118.89C478.698 118.89 477.179 118.89 475.661 118.89C471.106 118.89 466.702 118.89 462.299 119.649L461.236 119.801V116.157L462.603 116.005C463.969 115.853 465.184 115.549 466.551 115.094L466.854 114.942C468.828 114.183 468.828 114.183 470.195 112.664L470.347 112.361C471.409 110.235 471.409 107.502 471.561 105.224V95.962C471.568 92.1155 471.568 88.2689 471.561 84.4223C472.017 69.9976 472.017 69.9976 466.247 57.395C462.603 53.9027 457.44 53.4472 452.581 53.5991C448.482 53.7509 444.686 54.3582 441.194 56.484L440.434 56.7877C440.432 63.9747 440.432 71.1617 440.434 78.3488V78.8043C440.493 87.0541 440.544 95.304 440.586 103.554C440.282 109.172 440.282 109.172 442.105 114.335L442.408 114.638L442.56 115.094L442.864 115.246L443.623 115.549C445.597 116.612 447.419 117.068 449.696 117.371V121.015C447.111 121.071 444.525 120.969 441.953 120.712L437.549 120.256C434.209 119.953 431.02 119.953 427.832 119.953H427.224L417.203 120.256L416.596 120.408L413.255 120.864L412.344 121.015V115.094L413.863 114.942C416.292 114.638 418.57 114.031 420.24 111.905L420.847 110.994L420.999 110.69C422.821 107.502 422.517 102.947 422.669 99.4543V85.4852C422.676 79.9178 422.676 74.3503 422.669 68.7829V59.8244L422.517 59.3689C422.517 56.0285 422.517 56.0285 421.151 53.1435C418.873 51.1696 415.077 51.3215 412.344 51.1696V46.3108H413.863C419.784 46.159 425.706 45.8553 431.628 44.4887H431.931C434.499 43.9998 436.964 43.0754 439.22 41.7556ZM242.437 10.325H245.17C248.966 10.325 252.61 10.4769 256.406 10.7805H256.861C267.794 11.8434 267.794 11.8434 269.16 12.6026C269.166 19.6884 269.166 26.7742 269.16 33.86V34.4674L269.008 34.9229H266.731V34.6192C266.427 30.6714 265.82 26.8754 262.783 23.9905C260.165 22.0165 257.077 20.7603 253.825 20.3464C251.243 19.8909 248.662 19.8909 246.081 19.8909H245.625C240.311 19.8909 234.693 20.3464 230.593 24.1423C227.708 27.0273 227.405 31.1269 227.405 34.9229C227.405 39.6299 229.075 43.274 232.415 46.4626C233.498 47.5193 234.666 48.4842 235.908 49.3476L241.374 53.4472C244.367 55.585 247.405 57.6605 250.484 59.6726C253.071 61.5212 255.602 63.4453 258.076 65.4425C260.761 67.3154 263.209 69.5078 265.364 71.9715C270.679 78.3488 272.197 86.3962 271.438 94.5955C270.995 100.465 268.71 106.045 264.909 110.539C258.835 117.675 249.269 120.104 240.311 120.864H239.855L238.337 121.015H238.033C235.186 121.08 232.339 120.877 229.53 120.408L219.357 118.89H219.054L211.006 117.068H210.702L208.577 116.308V114.942C208.576 113.879 208.576 112.816 208.577 111.753V109.931C208.566 104.667 208.566 99.4037 208.577 94.14H213.284L213.436 95.962C213.891 99.758 214.954 102.947 217.839 105.528C223.609 110.083 231.96 110.842 239.096 110.083C241.526 109.779 244.107 109.172 246.385 108.109L246.84 107.957C250.332 106.287 252.61 103.402 253.976 99.9098C254.743 97.4565 255.052 94.883 254.887 92.3179C254.887 87.7628 253.369 83.8149 250.18 80.4745C247.903 78.3488 245.322 76.6785 242.589 75.0083C240.007 73.3381 240.007 73.3381 239.096 72.427L235.908 70.3013L234.237 69.2384L231.96 67.8719C229.53 66.3535 227.253 64.8351 224.975 63.013L224.52 62.7094L219.661 58.4579L219.357 58.1542C217.951 56.8694 216.679 55.4449 215.561 53.9027C211.31 48.1329 210.247 40.8446 211.158 34.0119L212.069 29.4567L212.221 29.153C212.928 26.5301 214.112 24.0597 215.713 21.8648C220.572 15.4875 227.86 11.9953 235.604 10.9324C237.882 10.4769 240.159 10.325 242.437 10.325ZM604.268 42.2111L604.724 42.363C609.669 43.0897 614.389 44.912 618.54 47.6966C622.69 50.4812 626.167 54.1578 628.714 58.4579C631.144 62.5575 632.358 67.1127 633.118 71.8197L633.269 72.2752C634.029 77.2859 634.029 82.9039 633.118 87.9146L632.966 88.3701C631.599 96.2657 628.562 104.161 622.944 109.931L622.033 110.842C616.263 116.764 608.064 120.104 599.865 120.864H599.409C597.894 120.979 596.374 121.03 594.854 121.015C585.896 121.015 576.33 118.738 569.497 112.664L569.042 112.209C567.22 110.69 565.701 108.868 564.335 106.894L564.183 106.591C557.654 97.1767 556.591 84.2705 558.717 73.1862C559.868 66.5729 562.574 60.3278 566.612 54.9656L566.916 54.5101C568.738 52.2325 570.864 50.2586 573.141 48.5884L573.445 48.4365C574.947 47.3691 576.519 46.4052 578.152 45.5516C581.189 44.0332 584.529 42.9703 587.87 42.363L588.325 42.2111C593.488 41.3001 599.106 41.3001 604.268 42.2111ZM584.681 54.5101L584.226 54.9656C579.822 59.0652 578 65.7461 577.241 71.516L577.089 71.9715C576.709 74.9926 576.557 78.038 576.634 81.0818C576.634 90.4958 578.456 100.669 585.288 107.502C588.629 110.539 593.032 111.753 597.435 111.601C600.821 111.622 604.104 110.438 606.698 108.261L608.823 106.135C615.201 99.4543 616.263 88.3701 616.112 79.7153C615.96 72.2752 614.745 63.6204 610.19 57.395L609.886 57.0913C608.465 55.0918 606.632 53.4201 604.511 52.1891C602.389 50.958 600.028 50.1962 597.587 49.9549H597.284C592.273 49.8031 588.325 51.0178 584.681 54.5101ZM389.72 46.7663L390.024 47.07L390.783 47.6773C394.883 51.3215 395.794 57.0913 396.097 62.2539V66.6572C396.081 72.4776 396.081 78.2982 396.097 84.1186V84.8778C396.143 89.0788 396.193 93.2796 396.249 97.4804C396.097 102.339 396.097 102.339 398.071 106.591C399.438 107.805 400.956 107.957 402.626 107.957C403.234 107.957 403.689 107.957 404.145 107.654L405.208 105.832H405.511C405.822 106.893 406.125 107.955 406.422 109.02V110.842L405.663 111.753L405.36 112.057C404.811 112.722 404.255 113.38 403.689 114.031L403.386 114.335C401.108 116.764 398.223 118.434 394.883 119.345L394.275 119.497C390.328 120.408 385.924 119.953 382.432 117.979C380.306 116.46 379.243 114.486 378.484 112.057L378.18 112.361C377.628 112.972 377.071 113.579 376.51 114.183C373.625 117.371 369.07 119.042 364.97 119.649L364.363 119.801H360.567C358.482 119.865 356.395 119.713 354.342 119.345C351.878 118.942 349.521 118.049 347.408 116.719C345.296 115.389 343.471 113.649 342.043 111.601L341.739 111.146C339.621 107.522 338.667 103.335 339.006 99.1507C339.006 93.9881 340.524 89.433 344.169 85.7888L344.472 85.4852C346.598 83.2076 349.635 81.6892 352.672 80.6263L353.127 80.4745L359.656 78.1969L362.389 77.2859C366.535 75.905 370.685 74.5385 374.84 73.1862L379.699 71.9715C379.702 70.605 379.702 69.2384 379.699 67.8719C379.547 63.6204 378.94 59.8244 376.055 56.484L375.751 56.1803C373.248 53.8181 369.93 52.5127 366.489 52.5362H364.515C362.693 52.5362 361.023 52.5362 359.201 53.1435L358.897 53.2954C354.494 54.6619 351.609 57.5469 349.483 61.6465C347.835 60.5921 346.263 59.4252 344.776 58.1542C345.687 52.8399 349.938 48.1329 354.19 45.0961C363.908 38.2633 380.61 38.567 389.72 46.7663ZM377.421 80.6263L376.814 80.7782L376.358 80.93L375.751 81.0818C374.941 81.3845 374.131 81.6882 373.322 81.9929L364.515 85.0297L364.059 85.1815C362.291 85.8339 360.677 86.8452 359.318 88.1518C357.959 89.4583 356.885 91.0318 356.164 92.7734C354.949 95.962 354.797 100.062 356.316 103.25C357.53 105.528 359.352 106.743 361.934 107.502C366.793 108.868 372.411 108.109 376.814 105.68L377.421 105.376L378.484 104.617L378.636 102.339C378.628 101.428 378.628 100.517 378.636 99.6062V97.6323C378.681 91.862 378.63 86.0913 378.484 80.3227L377.421 80.6263ZM567.979 4.40332L568.282 4.55516C569.497 5.31435 569.497 5.31435 569.801 6.22539C569.649 7.13642 569.042 7.74377 568.586 8.50297C567.973 9.41008 567.366 10.3211 566.764 11.2361L565.246 13.5136C564.838 14.1191 564.433 14.7264 564.031 15.3357L563.424 16.2467C563.12 16.7023 562.968 17.1578 562.513 17.4614H560.235L560.083 17.1578C559.324 15.6394 558.565 14.121 557.35 12.7544L557.046 12.4508C554.997 10.0688 552.122 8.55009 548.999 8.19929C546.418 8.04745 544.14 8.50297 541.711 9.414L541.407 9.56584C539.433 10.325 538.37 11.2361 537.459 13.0581C536.396 15.4875 536.093 18.2206 535.941 20.9537V29.153L535.789 32.1898V42.8185H553.25V52.3843H535.789C535.788 59.2677 535.788 66.151 535.789 73.0344V73.4899C535.846 83.6631 535.896 93.8363 535.941 104.009L536.093 104.617C536.093 108.109 536.093 108.109 537.611 111.146C540.648 113.727 544.899 113.727 548.695 113.879V117.523C544.687 117.635 540.676 117.432 536.7 116.916C526.684 116.099 516.611 116.303 506.636 117.523V115.094H507.243C511.039 114.79 513.772 113.879 516.202 111.146C518.783 107.502 518.024 101.428 518.024 97.3286V95.5065C518.119 88.3199 518.17 81.1327 518.176 73.9454V73.4899C518.175 66.809 518.175 60.1281 518.176 53.4472H508.914V48.7402L510.736 48.1329C512.643 47.4662 514.475 46.6011 516.202 45.5516L516.657 45.2479C517.417 44.7924 517.872 44.4887 518.176 43.7295C518.305 42.8246 518.356 41.9102 518.328 40.9964V37.2005C518.328 36.4919 518.328 35.7833 518.328 35.0747C518.328 25.0534 520.757 15.1839 527.893 8.04745C531.395 4.87127 535.702 2.71783 540.344 1.82206C543.494 1.17667 546.696 0.820894 549.91 0.759193C556.287 0.303677 562.361 1.06287 567.979 4.40332ZM301.654 26.5718H305.298V44.0332H330.959V53.4472H305.298V68.4792C305.35 76.4255 305.401 84.3717 305.45 92.3179C305.298 100.973 305.298 100.973 309.246 108.413L309.853 109.02C311.675 110.69 314.56 111.298 316.989 111.45H317.597C320.937 111.601 324.126 111.146 327.315 109.779L327.922 109.476H328.833L330.959 111.601L328.377 114.031L327.922 114.335C321.848 119.345 313.345 120.408 305.753 119.649C301.654 119.345 297.554 117.979 294.366 115.246L294.062 114.942C291.517 112.698 289.717 109.732 288.899 106.439C287.381 102.036 287.685 97.0249 287.685 92.3179V91.1032C287.661 84.6754 287.661 78.2475 287.685 71.8197V71.3642C287.685 65.3919 287.685 59.4195 287.685 53.4472H278.422V49.8031L279.637 49.4994C282.37 48.5884 284.8 46.9181 287.229 45.3998L287.685 45.0961L289.962 43.1222L290.266 42.8185L294.062 38.567L294.366 38.2633C296.643 35.2266 298.465 31.8861 300.439 28.5457L301.654 26.5718ZM667.129 42.8185C667.585 42.8185 667.889 43.1222 668.344 43.4259C668.952 44.7924 668.648 46.7663 668.648 48.1329C668.647 48.9933 668.647 49.8537 668.648 50.7141L668.951 50.4104C670.899 48.1029 673.313 46.2335 676.035 44.9251C678.756 43.6166 681.724 42.8987 684.743 42.8185H685.046C689.905 42.6667 694.46 43.5777 698.256 46.9181L698.56 47.2218C699.016 47.8292 699.016 48.4365 699.016 49.1957C698.864 50.1068 698.56 50.7141 698.104 51.4733L697.953 51.9288C696.699 54.5413 695.382 57.1233 694.005 59.6726L693.853 60.1281L693.549 60.5836L693.398 61.0391L692.942 61.6465L691.12 61.7983H690.664C689.45 61.7983 689.45 61.7983 688.994 61.3428L688.387 60.28C687.281 58.802 685.893 57.558 684.303 56.6198C682.713 55.6815 680.953 55.0677 679.125 54.8138C675.632 54.5101 672.292 55.1174 669.103 56.7877L668.496 56.9395V57.395L668.648 59.8244V61.9502C668.639 66.5053 668.639 71.0605 668.648 75.6157V76.0712C668.648 77.8932 668.648 79.7153 668.648 81.5374V81.9929C668.641 89.4836 668.641 96.9743 668.648 104.465C668.648 108.716 668.648 108.716 670.47 112.512C673.355 115.094 677.758 114.942 681.402 115.094V119.801L675.481 119.649C663.854 118.779 652.176 118.829 640.558 119.801H639.343V115.094L641.165 114.942C643.139 114.638 645.113 114.335 646.631 112.816L647.39 111.601L648.15 110.842C650.123 109.324 650.275 106.135 650.579 103.858L650.883 98.2396V79.8671C650.865 73.3381 650.865 66.809 650.883 60.28C650.883 56.484 650.883 56.484 649.516 53.1435C647.087 51.3215 643.443 51.3215 640.558 51.1696L640.406 49.8031V47.3737L640.558 46.3108H640.861C648.819 46.5829 656.768 45.5572 664.396 43.274L667.129 42.8185ZM270.223 160.493H294.821V162.923H293.91C292.695 163.075 291.784 163.378 290.873 164.138C289.203 166.112 289.203 168.541 289.203 171.122V171.578C289.158 176.183 289.158 180.789 289.203 185.395V185.699C289.215 191.671 289.215 197.643 289.203 203.616C289.203 208.93 289.203 215.611 293.151 219.711C296.947 223.051 302.565 223.507 307.424 223.203C311.068 222.899 314.712 221.988 317.445 219.103C318.052 218.496 318.356 217.888 318.812 217.129L318.963 216.826C321.241 212.878 321.241 207.867 321.393 203.464V186.458C321.388 183.269 321.388 180.081 321.393 176.892V168.996C321.241 166.719 321.241 166.719 320.178 164.745C319.267 163.986 318.052 163.834 316.989 163.682L315.471 163.227L314.56 162.923L314.408 161.405V161.101L314.56 160.493H336.729V162.923H335.817C334.603 163.075 333.692 163.227 332.781 164.138L332.173 165.2L332.022 165.504C331.566 166.263 331.414 166.871 331.262 167.782V168.085L331.11 172.792C331.099 180.536 331.048 188.28 330.959 196.024C330.959 215.307 330.959 215.307 324.43 221.988C320.264 225.907 314.932 228.36 309.246 228.973C307.12 229.276 304.994 229.276 302.868 229.276H302.413C300.333 229.322 298.253 229.221 296.188 228.973C291.481 228.214 286.774 226.847 283.129 223.507L282.522 222.899C279.03 220.014 277.967 214.852 277.511 210.752V210.297C277.115 206.26 277.013 202.2 277.208 198.149C277.219 193.544 277.219 188.938 277.208 184.332V183.725C277.163 179.574 277.112 175.424 277.056 171.274C277.208 167.782 277.208 167.782 275.841 164.745L274.778 164.138L273.412 163.682C272.349 163.227 271.286 163.075 270.223 162.923V160.493ZM702.204 180.232C707.873 180.227 713.541 180.227 719.21 180.232H720.577L721.032 180.384V182.662H720.577C718.755 183.117 717.388 183.725 716.173 185.243C714.959 186.913 714.351 188.735 713.592 190.709L712.377 194.05L711.618 196.176L711.314 196.935L711.163 197.39L709.948 200.731L709.189 202.705L708.885 203.616L708.733 203.919L700.989 224.721L700.838 225.177C699.775 228.112 698.712 231.048 697.649 233.983L697.497 234.287L695.675 238.994C693.549 245.219 691.12 251.293 685.046 254.482L681.099 255.696L680.643 255.848L676.543 256H676.24C674.418 256 672.747 256 671.077 255.544L670.774 255.393C668.951 255.089 666.067 254.33 665.004 252.66C664.852 252.052 664.852 251.445 665.156 250.837L665.915 249.926L666.37 249.319L666.674 249.015L667.889 247.649C668.241 247.141 668.595 246.635 668.951 246.13C669.559 245.371 669.559 245.371 670.166 245.219L671.077 245.827L671.533 246.738C672.14 248.104 673.051 248.864 674.418 249.471C676.543 250.23 679.125 250.23 681.25 249.319L682.465 248.408L683.224 248.104L683.528 247.497L683.984 247.042C685.198 245.523 686.109 243.853 686.868 242.183L687.324 241.272C688.322 239.236 689.234 237.159 690.057 235.046V234.743L690.968 232.921L691.424 232.161C691.727 231.098 690.968 229.884 690.513 228.821L689.905 226.999C689.5 226.037 689.095 225.076 688.691 224.114L686.565 218.8C683.137 210.291 679.695 201.788 676.24 193.291C675.632 191.924 675.329 190.709 675.177 189.191C675.025 187.521 674.114 185.699 673.051 184.636C671.988 183.877 670.774 183.877 669.559 183.877V181.447H691.879V182.662H691.424C689.602 182.966 688.539 183.421 687.476 184.94C686.868 186.154 687.324 188.128 687.779 189.343L688.235 190.558L690.664 196.631L691.879 199.82L692.183 200.883L696.586 211.967C697.106 213.035 697.513 214.155 697.801 215.307C700.592 206.772 703.325 198.219 706 189.646L706.152 189.343L706.304 188.432L706.456 188.128C706.759 187.065 706.911 186.002 706.607 184.94C706 184.028 705.241 183.269 704.178 182.966L702.204 182.662V180.232ZM380.762 181.447L381.369 182.055C384.143 184.684 385.824 188.262 386.076 192.076V192.683L386.38 194.05C386.835 196.479 386.987 198.909 386.987 201.338V203.16C387.011 206.956 387.011 210.752 386.987 214.548C386.683 218.8 386.683 218.8 388.202 222.595C388.537 222.874 388.893 223.127 389.265 223.355C390.176 224.114 391.087 224.266 392.301 224.418L393.82 224.569V226.999H370.437V224.418L371.348 224.266C372.866 223.962 373.929 223.355 374.992 222.14C375.751 221.077 375.903 219.711 376.207 218.496L376.662 216.218C377.421 211.967 377.421 207.563 377.421 203.312C377.396 201.136 377.396 198.959 377.421 196.783C377.421 193.139 376.966 189.039 374.233 186.306C371.651 184.028 368.311 183.877 365.122 184.028C362.693 184.18 360.415 184.788 358.29 186.002L357.682 186.154C357.723 195.669 357.773 205.185 357.834 214.7C357.682 218.8 357.682 218.8 358.897 222.444L360.264 223.507L360.567 223.658C361.782 224.418 363.3 224.418 364.667 224.418V226.999H341.284V224.418L342.195 224.266C343.409 224.114 344.32 223.962 345.383 223.203C347.205 220.622 346.902 217.281 346.902 214.244C346.858 206.399 346.858 198.554 346.902 190.709C347.054 187.673 347.054 187.673 345.839 184.94C343.713 182.966 341.436 182.814 338.702 182.662V182.51H339.006C341.435 182.358 343.865 182.358 346.294 181.599L348.268 181.295C349.787 180.992 351.153 180.688 352.52 179.929L353.431 179.473C354.038 179.018 354.494 179.018 355.253 179.018C355.557 179.321 355.405 179.473 355.405 179.777V180.232L355.556 180.688V182.206L355.86 181.903C362.389 176.892 374.233 175.829 380.762 181.447ZM510.736 183.421C515.139 187.824 516.05 195.568 516.05 201.338H485.834C485.986 209.993 485.986 209.993 490.389 217.129C492.97 219.559 496.918 220.773 500.411 220.773H500.714C504.207 220.773 504.207 220.773 507.699 220.318L508.154 220.166C509.825 219.862 511.495 219.407 513.013 218.8L513.772 218.648L514.38 219.711L514.532 220.014L514.835 221.077C512.71 224.873 506.484 227.302 502.688 228.365C496.766 230.036 489.63 229.732 484.164 226.695C482.645 225.784 481.127 224.873 479.912 223.507V223.203L479.457 223.051L478.546 221.988L478.394 221.684C474.294 215.915 473.231 208.474 474.294 201.642L475.205 197.39L475.357 196.935C476.268 193.139 478.09 189.343 480.672 186.306L480.823 186.002C484.316 182.055 489.175 179.777 494.337 179.17H494.793C500.411 178.562 506.332 179.625 510.736 183.421ZM487.352 187.217C485.404 189.899 484.439 193.17 484.619 196.479H503.144C502.992 191.317 502.992 191.317 500.714 186.762L500.411 186.458C499.044 184.788 496.918 184.028 494.793 183.877C491.908 183.725 489.174 185.091 487.352 187.217ZM453.037 177.955H471.865V181.447L471.258 181.295C470.195 181.144 469.436 181.447 468.524 182.055C467.158 183.117 466.399 185.243 466.095 186.913V187.673C465.943 188.887 465.488 189.95 465.032 191.013L464.273 192.38C462.669 196.054 460.998 199.698 459.262 203.312C457.51 207.071 455.84 210.868 454.252 214.7C452.731 217.864 451.263 221.053 449.848 224.266L449.545 224.873L449.241 225.784C448.785 226.847 448.785 226.847 448.026 227.151C447.576 227.275 447.12 227.376 446.66 227.454L445.901 227.758H445.445L445.141 227.91L444.686 228.062H443.623L443.471 227.606C438.936 215.192 434.229 202.841 429.35 190.558L429.046 189.798L428.895 189.343L428.743 189.039C428.591 188.735 428.591 188.735 427.984 188.584L427.528 188.432L427.224 187.521L426.465 186.002L426.161 185.243C425.858 184.332 425.402 183.877 424.643 183.421C423.58 182.966 422.669 182.814 421.606 182.662V180.232H443.775C443.471 180.84 443.319 181.144 442.712 181.599L441.345 181.751C440.282 181.751 439.068 181.751 438.157 182.662L436.942 182.814C436.937 183.37 436.937 183.927 436.942 184.484C437.094 186.306 437.853 187.824 438.46 189.495L439.22 191.165L439.371 191.469L441.194 196.024C441.8 197.542 442.408 199.061 443.016 200.579C444.686 205.134 444.686 205.134 446.812 209.537L447.419 211.056C450.102 204.374 452.784 197.694 455.466 191.013L455.618 190.709L456.074 189.495V189.191L457.137 186.913C457.592 185.547 457.744 184.028 457.288 182.662C456.833 181.751 456.377 181.447 455.466 181.144L455.163 180.992L453.037 180.384V177.955ZM645.113 169.756H647.542V180.232H663.941V186.154H647.542V195.416C647.595 199.415 647.646 203.413 647.694 207.412C647.239 214.852 647.239 214.852 649.668 221.381C651.338 223.051 653.616 223.203 655.893 223.203C658.019 223.203 660.449 222.747 662.119 221.229L662.422 221.077C662.878 221.229 662.878 221.229 663.182 221.684L663.485 222.444L663.637 222.747L663.941 223.507C662.978 224.955 661.725 226.189 660.261 227.129C658.798 228.07 657.156 228.698 655.438 228.973C651.035 229.884 645.872 229.58 641.924 227.302L639.798 225.632V225.329L639.343 225.177C636.306 221.533 635.851 217.281 635.851 212.726C635.852 211.714 635.852 210.701 635.851 209.689V207.26C635.829 200.63 635.829 193.999 635.851 187.369H630.081C629.929 186.61 629.777 185.547 630.081 184.788L630.688 184.484L631.144 184.18L631.447 184.028L632.358 183.725L632.814 183.421C634.561 182.519 636.151 181.339 637.521 179.929L637.825 179.625C639.495 178.107 640.709 176.285 641.772 174.463C642.55 173.277 643.36 172.112 644.202 170.97L645.113 169.756ZM580.43 179.018H580.885C582.916 179.071 584.943 179.223 586.959 179.473L590.603 180.232V193.139H586.959L586.807 191.924C586.655 189.95 585.744 188.28 584.074 187.065C581.948 185.547 579.215 185.243 576.634 185.243H576.178C574.204 185.243 572.534 185.699 571.016 186.913C569.801 188.28 569.801 189.798 569.801 191.469C569.801 192.835 570.408 193.898 571.471 194.809C572.816 195.824 574.299 196.642 575.874 197.238C577.591 198.106 579.312 198.967 581.037 199.82C583.177 200.852 585.128 202.238 586.807 203.919C589.388 206.197 590.451 209.689 590.603 213.03C590.755 217.129 589.844 221.077 586.959 224.266C584.074 227.151 579.822 228.669 575.723 229.125H575.267L574.052 229.276L573.597 229.428C571.319 229.58 568.89 228.821 566.612 228.365C564.842 227.905 563.07 227.45 561.298 226.999V226.543C561.298 220.622 561.298 220.622 560.387 214.852L560.235 213.941H563.727L564.031 215.307C564.486 217.888 565.701 219.862 567.979 221.381C570.864 223.203 574.204 223.658 577.545 222.899C578.759 222.595 580.278 221.988 581.037 220.925C582.1 219.103 582.403 216.977 581.948 214.852C581.341 212.574 579.063 211.208 577.241 210.145L576.937 209.841L568.738 204.375L568.434 204.223C567.184 203.315 566.015 202.299 564.942 201.186C562.75 199.001 561.451 196.078 561.298 192.987C561.146 189.495 561.602 186.002 564.031 183.421C568.282 178.714 574.508 178.866 580.43 179.018ZM536.852 179.018C537.156 179.321 537.004 179.777 537.004 180.081V180.688C537.055 181.599 537.105 182.51 537.156 183.421L537.459 183.117C540.648 180.232 544.747 178.866 549.151 179.018C551.884 179.17 554.161 180.081 556.287 182.055L556.591 182.206C556.895 182.662 556.895 183.117 556.743 183.573C556.743 184.332 556.439 184.939 555.984 185.699L555.832 186.002C555.142 187.379 554.433 188.745 553.706 190.102L553.554 190.406L553.25 190.861H550.821C550.366 190.558 550.214 189.95 549.91 189.495C548.847 187.824 547.025 186.913 545.203 186.458H544.747L544.14 186.306C542.166 186.154 539.889 186.154 538.067 187.065L537.459 187.217L537.156 187.369C537.192 198.099 537.242 208.829 537.307 219.559C537.459 220.925 537.915 222.292 539.129 223.203C541.255 224.418 543.836 224.266 546.266 224.418V226.999H520.605V224.418L521.516 224.266C523.338 224.114 525.008 223.355 526.375 222.14L526.982 220.622L527.134 220.318C527.59 216.674 527.438 213.03 527.438 209.386C527.416 204.476 527.416 199.567 527.438 194.657L527.286 187.976V187.521C527.134 186.458 526.83 185.547 526.071 184.788C525.16 184.18 523.946 183.877 523.035 183.573C522.427 183.372 521.819 183.17 521.212 182.966L520.605 182.662L520.453 181.447H520.909C525.16 181.144 525.16 181.144 529.26 180.384L533.815 179.473C534.878 179.17 535.789 179.018 536.852 179.018ZM413.711 177.955C414.318 178.259 414.622 178.714 414.925 179.321V182.662C414.868 186.964 414.868 191.266 414.925 195.568V205.741C414.924 208.728 414.924 211.714 414.925 214.7C414.622 218.648 414.622 218.648 415.988 222.14C417.355 223.507 419.329 224.266 421.303 224.418L421.758 224.569V226.999H397.16V225.784H396.249V225.632L396.705 225.48C398.679 225.177 400.804 224.721 402.019 223.051L402.475 221.684V221.077C402.778 219.255 402.778 217.433 402.778 215.611C402.732 207.564 402.732 199.516 402.778 191.469C402.93 188.128 402.93 188.128 401.867 185.091C400.804 184.18 399.59 183.877 398.223 183.421L397.008 183.117L396.553 182.966L395.946 182.662C395.915 181.852 395.915 181.042 395.946 180.232H396.249C401.217 180.132 406.158 179.47 410.978 178.259C412.8 177.803 412.8 177.803 413.711 177.955ZM618.541 177.955C618.997 178.259 619.452 178.714 619.756 179.321C619.804 179.877 619.804 180.436 619.756 180.992V182.358C619.697 186.356 619.697 190.355 619.756 194.353V199.972C619.751 205.741 619.751 211.511 619.756 217.281L619.908 217.737C619.908 220.318 619.908 220.318 621.122 222.444C622.641 223.658 624.615 224.266 626.588 224.418V226.999H602.142V225.784H601.231V225.632H601.687C603.509 225.177 605.787 224.569 607.001 222.899C608.216 219.255 607.76 214.852 607.76 211.056C607.739 205.843 607.739 200.629 607.76 195.416C608.216 190.102 608.216 190.102 606.849 185.243C606.242 184.636 605.635 184.332 604.876 184.028L604.572 183.877L601.839 183.117L600.928 182.662V181.144C601.028 180.84 601.13 180.536 601.231 180.232C606.206 180.216 611.157 179.552 615.96 178.259C617.63 177.803 617.63 177.803 618.541 177.955ZM618.997 160.645C620.059 161.708 620.819 163.075 620.97 164.593C620.819 166.263 619.756 167.934 618.541 169.148C617.837 169.823 617.002 170.346 616.088 170.686C615.174 171.025 614.2 171.174 613.227 171.122C611.708 170.97 610.19 170.363 609.279 169.3C608.672 168.541 608.368 167.934 608.064 167.023L607.912 166.719C607.76 165.2 607.76 163.53 608.52 162.164C609.734 160.493 611.101 159.734 613.075 159.279C615.352 159.127 617.326 159.127 618.997 160.645ZM412.952 160.645C414.166 161.708 414.622 163.227 414.925 164.745C414.622 166.719 413.255 168.541 411.737 169.756C410.218 170.97 408.548 171.274 406.574 171.122C404.904 170.819 403.689 169.907 402.626 168.541C401.715 166.871 401.564 165.049 402.019 163.378C402.475 161.708 403.538 160.645 405.056 159.886C407.637 158.823 410.826 158.823 412.952 160.645Z" fill="#F2E6CF"/>
</svg>
