<svg viewBox="0 0 804 257" fill="none" xmlns="http://www.w3.org/2000/svg">
<path d="M252.831 0.113905V6.03569C269.551 6.03569 275.472 13.3517 275.472 37.7346V162.782C275.472 189.254 266.763 193.783 252.831 193.783V199.71H324.587V193.783C307.864 193.783 301.946 186.819 301.946 162.087V106.352C316.577 108.093 323.889 108.443 332.597 108.443C377.883 108.443 402.965 89.9832 402.965 56.8912C402.965 29.3726 380.673 0.112549 325.635 0.112549H252.835L252.831 0.113905ZM301.944 7.77969H326.677C363.252 7.77969 375.097 36.34 375.097 57.5882C375.097 84.758 356.285 100.784 326.677 100.784C316.225 100.784 311 100.434 301.944 97.3003V7.77969ZM444.761 72.9146C409.93 72.9146 382.758 102.177 382.758 139.447C382.758 176.721 410.623 203.54 449.29 203.54C470.886 203.54 485.169 196.228 500.147 177.067V168.004C482.38 187.864 473.675 193.782 456.602 193.782C439.883 193.782 406.792 179.855 407.485 124.469H498.055C499.799 95.9039 473.324 72.9121 444.759 72.9121L444.761 72.9146ZM539.5 72.9146L501.184 76.7496V82.6714C517.904 82.6714 521.743 85.8066 521.743 100.784V170.101C521.743 192.391 517.557 193.784 501.184 193.784V199.71H566.324V193.784C547.86 193.784 545.426 188.908 545.426 170.101V109.837C557.615 93.4654 568.416 85.8041 580.606 85.8041C593.84 85.8041 608.124 94.166 608.124 114.02V178.462C608.124 189.957 603.592 193.785 586.875 193.785V199.711H717.15V193.785C698.69 193.785 696.248 188.909 696.248 170.102V109.838C708.443 93.4663 719.235 85.8049 731.432 85.8049C744.667 85.8049 758.951 94.1669 758.951 114.021V178.463C758.951 189.958 754.425 193.786 737.706 193.786V199.712H803.541V193.786C786.122 193.786 782.639 188.913 782.639 172.888V117.153C782.639 87.5446 761.388 72.9156 740.835 72.9156C725.164 72.9156 710.882 80.928 696.251 97.6489V72.9156H690.334L652.013 76.7508V82.6725C668.736 82.6725 672.568 85.8077 672.568 100.785V170.102C672.568 192.217 668.416 193.758 652.365 193.78C635.267 193.712 631.814 188.8 631.814 172.887V117.153C631.814 87.5439 610.568 72.915 590.015 72.915C574.344 72.915 560.06 80.9273 545.431 97.6482V72.915H539.505L539.5 72.9146ZM441.625 80.2289C457.302 80.2289 475.76 91.3752 474.712 118.545H407.485C408.879 95.5575 421.075 80.2289 441.623 80.2289H441.625ZM519.978 217.229C518.319 217.229 511.364 218.099 509.271 226.517H505.553L505.202 228.179H508.954L503.302 256.113H505.08C507.33 250.106 510.493 237.579 512.429 228.179H517.605L518.551 227.346L518.711 226.517H512.907L513.336 224.617C514.288 220.352 516.063 218.73 518.434 218.73C520.093 218.73 521.358 219.96 521.909 221.025L522.898 220.548L523.379 217.94C522.783 217.387 520.885 217.229 519.978 217.229ZM252.678 218.613V219.641C256.235 220.076 256.074 219.877 256.074 223.554V235.333C256.074 242.48 258.684 246.751 267.102 246.751C272.199 246.751 277.614 243.584 277.614 235.089V223.949C277.614 223.119 277.769 222.449 277.848 221.814C278.045 220.39 279.348 219.835 281.245 219.641V218.613H271.922V219.641C273.778 219.835 275.122 220.39 275.319 221.814C275.398 222.449 275.558 223.119 275.558 223.949V234.929C275.558 241.253 272.711 244.89 267.297 244.89C261.409 244.89 259.909 240.659 259.909 235.129V223.554C259.909 219.878 259.75 220.076 263.306 219.641V218.613L252.678 218.613ZM535.415 218.613V219.641C538.972 220.076 538.817 219.877 538.817 223.554V241.337C538.817 245.008 538.972 244.815 535.415 245.25V246.274H546.044V245.25C542.49 244.815 542.648 245.008 542.648 241.337V219.875H545.055C549.486 219.875 551.615 221.931 551.615 226.361C551.615 230.708 549.325 233.665 544.383 233.589V234.378C550.431 234.737 555.567 231.655 555.567 225.966C555.567 221.219 552.327 218.613 545.767 218.613L535.415 218.613ZM402.429 224.565C398.923 224.565 395.874 226.73 395.874 229.472C395.874 232.795 397.919 233.985 399.566 235.085C404.141 238.103 405.201 239.719 405.201 241.701C405.201 243.925 403.436 245.571 401.271 245.571C398.922 245.571 396.699 244.233 396.364 240.851H395.566V245.237C395.566 245.478 395.664 245.602 395.787 245.667C397.372 246.272 399.049 246.638 400.998 246.638C404.66 246.638 408.377 244.627 408.377 241.003C408.377 238.468 407.337 236.914 404.108 234.508C401.057 232.22 398.924 230.935 398.924 228.799C398.924 226.546 400.506 225.632 402.277 225.632C404.714 225.632 405.875 227.342 406.121 229.472H406.911V225.476C406.911 225.323 406.882 225.207 406.698 225.142C405.481 224.719 403.739 224.565 402.429 224.565ZM644.63 224.565C641.124 224.565 638.079 226.73 638.079 229.472C638.079 232.795 640.119 233.985 641.767 235.085C646.345 238.103 647.407 239.719 647.407 241.701C647.407 243.925 645.639 245.571 643.477 245.571C641.127 245.571 638.904 244.233 638.57 240.851H637.772V245.237C637.772 245.478 637.866 245.602 637.984 245.667C639.574 246.272 641.248 246.638 643.203 246.638C646.863 246.638 650.578 244.627 650.578 241.003C650.578 238.468 649.544 236.914 646.309 234.508C643.261 232.22 641.125 230.935 641.125 228.799C641.125 226.546 642.713 225.632 644.479 225.632C646.918 225.632 648.081 227.342 648.322 229.472H649.116V225.476C649.116 225.323 649.088 225.207 648.904 225.142C647.687 224.719 645.943 224.565 644.63 224.565ZM727.748 224.565C725.218 231.3 721.656 241.27 720.342 243.953C719.855 244.959 718.974 245.48 718.151 245.48V246.274H723.696V245.48C722.356 245.48 721.772 244.473 722.173 243.285L723.57 239.202H731.349L732.663 243.133C733.152 244.474 732.97 245.48 731.045 245.48V246.274H738.151V245.48C736.841 245.48 736.35 244.506 735.678 242.794C734.642 240.082 731.531 230.695 729.462 224.565L727.748 224.565ZM792.969 224.565C790.442 231.3 786.87 241.27 785.56 243.953C785.069 244.959 784.186 245.48 783.364 245.48V246.274H788.917V245.48C787.571 245.48 786.996 244.473 787.39 243.285L788.796 239.202H796.575L797.876 243.133C798.364 244.474 798.185 245.48 796.267 245.48V246.274H803.368V245.48C802.055 245.48 801.572 244.506 800.9 242.794C799.861 240.082 796.754 230.695 794.679 224.565L792.969 224.565ZM283.957 224.929V225.723C285.695 225.723 286.642 226.699 287.497 227.793V242.161C287.497 242.797 287.372 243.313 287.31 243.801C287.159 244.902 286.154 245.333 284.69 245.48V246.274H292.16V245.48C290.148 245.333 289.112 244.902 288.959 243.801C288.899 243.313 288.777 242.797 288.777 242.161V228.682C293.746 234.535 298.775 240.544 303.622 246.274H304.659V229.046C304.659 228.405 304.784 227.89 304.846 227.402C304.996 226.302 306.032 225.876 307.466 225.723V224.929H299.996V225.723C302.008 225.876 303.044 226.302 303.197 227.402C303.257 227.89 303.379 228.405 303.379 229.046V241.58H303.319C298.776 236.061 294.048 230.447 289.505 224.929L283.957 224.929ZM313.688 224.929V225.723C316.431 226.058 316.308 225.907 316.308 228.743V242.46C316.308 245.296 316.431 245.145 313.688 245.48V246.274H321.891V245.48C319.148 245.145 319.267 245.296 319.267 242.46V228.743C319.267 225.907 319.148 226.058 321.891 225.723V224.929H313.688ZM326.585 224.929V225.723C328.049 225.723 328.994 226.672 330.121 229.931C331.979 235.114 334.054 241.003 335.912 246.274H337.47C340.03 240.026 342.621 233.801 345.184 227.554C345.822 226.03 346.827 225.723 347.713 225.723V224.929H341.127V225.723C343.201 225.723 343.994 226.673 343.231 228.591C341.34 233.256 339.483 237.947 337.531 242.612C335.947 237.976 334.174 232.738 332.984 229.137C331.978 226.214 333.201 225.723 334.876 225.723V224.929L326.585 224.929ZM352.411 224.929V225.723C355.155 226.058 355.032 225.907 355.032 228.743V242.46C355.032 245.296 355.155 245.145 352.411 245.48V246.274H367.409L368.324 240.786H367.535C366.134 244.051 366.344 245.298 361.925 245.298C359.182 245.298 357.99 245.084 357.99 242.495V235.602H360.55C362.592 235.602 363.296 236.67 363.357 238.465H364.146V231.971H363.357C363.297 233.865 362.472 234.626 360.55 234.626H357.99V225.906H362.138C364.334 225.906 364.944 227.582 365.248 229.841H366.038V224.93L352.411 224.929ZM372.992 224.929V225.723C375.736 226.058 375.612 225.907 375.612 228.743V242.46C375.612 245.296 375.736 245.145 372.992 245.48V246.274H381.191V245.48C378.447 245.145 378.571 245.296 378.571 242.46V236.821H381.434C385.124 242.95 386.101 246.274 387.903 246.274H391.044V245.879C389.978 245.238 388.269 243.101 386.745 240.877L383.756 236.335C386.102 235.417 388.025 233.255 388.025 230.114C388.025 226.549 384.942 224.929 381.864 224.929L372.992 224.929ZM413.88 224.929V225.723C416.627 226.058 416.5 225.907 416.5 228.743V242.46C416.5 245.296 416.627 245.145 413.88 245.48V246.274H422.079V245.48C419.339 245.145 419.464 245.296 419.464 242.46V228.743C419.464 225.907 419.339 226.058 422.079 225.723V224.929H413.88ZM427.233 224.929L426.409 229.593H427.173C428.179 227.581 428.792 225.905 431.446 225.905H434.183V242.46C434.183 245.296 434.31 245.144 431.563 245.48V246.274H439.771V245.48C437.024 245.144 437.146 245.296 437.146 242.46V225.905H439.888C442.542 225.905 443.151 227.581 444.157 229.593H444.921L444.096 224.929H427.233ZM448.461 224.929V225.723C449.861 225.723 450.713 226.483 451.719 228.465L456.417 237.766V242.46C456.417 245.296 456.533 245.145 453.792 245.48V246.274H461.996V245.48C459.255 245.145 459.372 245.296 459.372 242.46V239.051C459.372 238.286 459.433 237.432 459.74 236.821L464.829 227.584C465.654 226.119 466.475 225.723 467.328 225.723V224.929H461.046V225.723C462.847 225.723 463.822 226.607 462.786 228.465L458.582 236.118L454.886 228.465C454.127 226.883 453.917 225.723 456.231 225.723V224.929H448.461ZM561.032 224.929V225.723C563.778 226.058 563.656 225.907 563.656 228.743V242.46C563.656 245.296 563.778 245.145 561.032 245.48V246.274H576.033L576.949 240.786H576.155C574.754 244.051 574.97 245.298 570.545 245.298C567.805 245.298 566.615 245.084 566.615 242.495V235.602H569.175C571.217 235.602 571.92 236.67 571.977 238.465H572.771V231.971H571.977C571.92 233.865 571.096 234.626 569.175 234.626H566.615V225.906H570.762C572.958 225.906 573.56 227.582 573.864 229.841H574.663V224.93L561.032 224.929ZM581.491 224.929V225.723C583.232 225.723 584.174 226.699 585.027 227.793V242.161C585.027 242.797 584.908 243.313 584.844 243.801C584.691 244.902 583.686 245.333 582.229 245.48V246.274H589.69V245.48C587.678 245.333 586.647 244.902 586.493 243.801C586.433 243.313 586.307 242.797 586.307 242.161V228.682C591.279 234.535 596.31 240.544 601.156 246.274H602.193V229.046C602.193 228.405 602.317 227.89 602.38 227.402C602.528 226.302 603.568 225.876 604.996 225.723V224.929H597.53V225.723C599.548 225.876 600.581 226.302 600.731 227.402C600.792 227.89 600.918 228.405 600.918 229.046V241.58H600.849C596.309 236.061 591.583 230.447 587.035 224.929L581.491 224.929ZM608.81 224.929V225.723C610.551 225.723 611.493 226.699 612.345 227.793V242.161C612.345 242.797 612.23 243.313 612.163 243.801C612.01 244.902 611.005 245.333 609.547 245.48V246.274H617.013V245.48C615.001 245.333 613.966 244.902 613.812 243.801C613.754 243.313 613.63 242.797 613.63 242.161V228.682C618.599 234.535 623.629 240.544 628.475 246.274H629.512V229.046C629.512 228.405 629.635 227.89 629.699 227.402C629.846 226.302 630.888 225.876 632.319 225.723V224.929H624.849V225.723C626.867 225.876 627.901 226.302 628.055 227.402C628.112 227.89 628.237 228.405 628.237 229.046V241.58H628.172C623.63 236.061 618.907 230.447 614.358 224.929L608.81 224.929ZM655.282 224.929V225.723C656.685 225.723 657.538 226.483 658.544 228.465L663.238 237.766V242.46C663.238 245.296 663.361 245.145 660.614 245.48V246.274H668.818V245.48C666.077 245.145 666.197 245.296 666.197 242.46V239.051C666.197 238.286 666.254 237.432 666.562 236.821L671.655 227.584C672.474 226.119 673.3 225.723 674.158 225.723V224.929H667.872V225.723C669.674 225.723 670.643 226.607 669.607 228.465L665.403 236.118L661.716 228.465C660.951 226.883 660.737 225.723 663.056 225.723V224.929H655.282ZM679.151 224.929V225.723C681.901 226.058 681.775 225.907 681.775 228.743V242.46C681.775 245.296 681.901 245.145 679.151 245.48V246.274H694.122L695.042 240.786H694.274C692.874 244.051 693.059 245.298 688.634 245.298C685.924 245.298 684.734 245.086 684.734 242.951V228.743C684.734 225.907 684.612 226.058 687.359 225.723V224.929H679.151ZM697.389 224.929V225.723C698.853 225.723 699.796 226.672 700.925 229.931C702.783 235.114 704.862 241.003 706.721 246.274H708.27C710.836 240.026 713.421 233.801 715.987 227.554C716.623 226.03 717.639 225.723 718.521 225.723V224.929H711.931V225.723C714.011 225.723 714.8 226.673 714.035 228.591C712.15 233.256 710.28 237.947 708.335 242.612C706.747 237.976 704.984 232.738 703.788 229.137C702.782 226.214 704.006 225.723 705.684 225.723V224.929L697.389 224.929ZM741.969 224.929V225.723C743.704 225.723 744.652 226.699 745.504 227.793V242.161C745.504 242.797 745.378 243.313 745.318 243.801C745.164 244.902 744.161 245.333 742.698 245.48V246.274H750.168V245.48C748.156 245.333 747.12 244.902 746.966 243.801C746.903 243.313 746.784 242.797 746.784 242.161V228.682C751.748 234.535 756.788 240.544 761.635 246.274H762.667V229.046C762.667 228.405 762.793 227.89 762.854 227.402C763.004 226.302 764.037 225.876 765.474 225.723V224.929H758.003V225.723C760.015 225.876 761.052 226.302 761.205 227.402C761.268 227.89 761.387 228.405 761.387 229.046V241.58H761.327C756.784 236.061 752.06 230.447 747.518 224.929L741.969 224.929ZM770.476 224.929V225.723C773.217 226.058 773.1 225.907 773.1 228.743V242.46C773.1 245.296 773.216 245.145 770.476 245.48V246.274H778.675V245.48C775.934 245.145 776.051 245.296 776.051 242.46V228.743C776.051 225.907 775.934 226.058 778.675 225.723V224.929H770.476ZM378.565 225.906H380.912C383.138 225.906 384.969 227.067 384.969 230.391C384.969 233.838 383.748 235.849 381.095 235.849H378.565V225.906ZM492.271 226.044C485.672 226.044 481.209 233.791 481.209 238.968C481.209 242.68 482.589 246.751 487.647 246.751C495.195 246.751 498.67 237.502 498.67 233.155C498.67 229.602 497.534 226.044 492.271 226.044ZM491.92 226.99C492.549 226.99 495.035 227.147 495.035 231.259C495.035 238.13 492.634 245.562 488.128 245.562C485.203 245.562 484.844 241.85 484.844 239.797C484.844 234.655 487.649 226.99 491.92 226.99ZM727.657 228.131H727.714L730.954 238.044H724.03L727.657 228.131ZM792.874 228.131H792.939L796.167 238.044H789.247L792.874 228.131Z" fill="#F2E6CF"/>
<path d="M0 0H230.932C230.881 0.244352 230.881 113.548 230.932 115.466C231.026 202.787 127.535 255.866 112.427 256C97.3217 255.594 2.02762 212.286 0 115.466C0.216499 113.957 0.245618 0.244352 0 0Z" fill="#F2E6CF"/>
<path d="M9.1151 9.87421H221.816C222.013 9.62669 222.013 114.204 221.816 116.225C220.575 202.795 123.363 248.385 110.908 247.643C98.4175 247.537 8.85112 202.918 9.1151 115.466C9.12143 114.025 9.14042 9.62669 9.1151 9.87421Z" fill="#F2E6CF"/>
<path d="M9.11513 74.444C9.49558 74.5909 9.20056 9.62669 9.1151 9.87421H221.816C221.92 9.62669 221.92 44.4691 221.816 74.444H9.11513Z" fill="#181818"/>
<path d="M21.2706 168.64C29.2887 186.138 39.404 199.986 53.9347 211.941L115.466 148.89L175.478 210.421C187.458 199.06 199.432 185.452 208.143 169.399L115.466 80.5222L21.2706 169.399V168.64Z" fill="#181818"/>
<path d="M168.64 25.8267H174.719C178.655 24.7252 180.202 22.2659 184.593 22.0298C187.682 22.2659 189.156 24.3448 191.43 24.3075C193.401 24.3455 196.385 22.1273 199.786 22.0298C203.003 22.1273 204.657 24.1358 206.622 25.0682C208.794 25.9039 211.347 25.8596 214.219 25.8267C213.973 27.7992 214.044 28.9519 214.219 30.3857C214.044 32.2424 216.274 31.5854 216.498 34.1834C216.274 37.1277 213.396 36.5725 213.46 37.9822V48.6172C213.435 49.5997 216.095 49.7726 215.739 51.6559C216.095 54.7622 213.129 53.7291 213.46 56.2132C213.466 57.8097 213.325 61.4818 213.46 61.5312C207.607 61.4806 170.829 61.8186 169.401 61.5312C169.138 57.8343 169.745 58.0673 170.161 56.2132C169.988 54.6571 166.571 53.722 166.362 50.8949C166.571 49.3908 168.62 49.4947 168.64 47.8564V37.222C168.691 35.9161 165.6 35.2221 165.602 33.425C165.837 30.8865 168.585 31.1885 168.64 29.6255C168.583 28.9178 168.659 26.354 168.64 25.8267Z" fill="#F2E6CF"/>
<path d="M192.191 50.8948C193.328 51.331 196.102 52.3509 199.026 53.1744C202.283 54.224 205.983 53.4839 208.902 53.9346C209.585 54.2068 191.818 54.3442 192.191 54.6937C191.889 50.9151 191.818 51.2626 192.191 50.8948Z" fill="#181818"/>
<path d="M189.152 55.4526C189.265 55.0348 190.158 54.4139 191.43 54.6937C192.362 54.4139 193.257 55.0348 192.95 55.4526C193.257 56.5649 192.362 57.1865 191.43 56.9732C190.158 57.1865 189.265 56.5649 189.152 55.4526Z" fill="#181818"/>
<path d="M189.911 50.8948C188.772 51.331 185.998 52.3509 183.074 53.1744C179.817 54.224 176.118 53.4839 173.199 53.9346C172.516 54.2068 190.282 54.3442 189.911 54.6937C190.21 50.9151 190.282 51.2626 189.911 50.8948Z" fill="#181818"/>
<path fill-rule="evenodd" clip-rule="evenodd" d="M72.1655 64.5689C72.977 66.815 74.6672 68.3051 77.4836 68.3678C82.5802 68.3045 87.5433 64.4937 90.3976 62.2901C92.8658 60.6828 95.2752 58.916 94.9555 55.4526V56.9732C94.8441 56.6643 98.8714 52.6457 108.628 55.4526C111.554 56.7181 123.363 63.3504 126.1 64.5689C128.111 65.3602 135.801 70.8765 148.13 69.1268C147.821 68.7495 166.169 66.2251 161.804 47.0979C159.14 33.8231 160.047 32.8647 161.044 28.8652C160.732 28.3259 149.943 25.9013 150.409 41.0207C145.553 41.3531 139.583 44.8859 143.572 53.9346C145.05 51.8145 147.173 49.3197 150.409 49.3767C151.919 49.3197 153.851 51.9563 154.208 53.9346C154.259 58.6038 149.51 60.6829 143.572 60.0118C140.623 59.2205 137.868 55.9085 133.698 53.1744C134.466 52.5793 135.125 50.1515 135.217 49.3767C135.125 46.7901 133.076 45.6836 131.418 44.8182C131.96 44.0548 132.534 42.9465 132.179 41.7798C132.534 40.2092 129.837 40.3483 129.139 39.5013C129.225 39.0316 129.225 39.378 129.139 38.7411C129.225 35.7393 129.657 34.2162 123.822 34.1833C124.514 31.6182 123.94 29.8515 122.303 28.8652H117.745C115.272 28.0492 117.855 27.1881 115.466 25.0681C113.333 22.8284 109.823 24.8839 110.148 25.0681C109.823 22.9785 108.511 21.4669 106.35 21.2706C104.986 21.4669 103.475 21.5707 102.551 22.0297L101.032 23.5489C98.7278 23.4064 98.1883 21.4669 95.7157 21.2706C93.226 21.4669 92.2182 23.4065 91.1566 24.3073C89.5569 23.8579 89.3404 22.4374 87.359 22.7887C85.7441 22.4374 85.3485 23.8579 85.0795 24.3073C83.2994 26.1438 83.4044 27.8315 81.2812 28.8652L80.5223 27.3458C80.2203 27.0616 80.1944 26.9659 80.5223 26.5868C76.7899 28.4992 69.1611 45.8893 69.1269 49.3767C69.1586 52.8514 72.1148 51.3645 72.1655 54.6936C72.1148 57.1498 68.9497 58.7091 69.1269 60.7709C68.9497 62.865 71.6464 64.0087 73.6848 63.8093L72.1655 64.5689Z" fill="#F2E6CF"/>
<path d="M80.5223 50.1358C80.3489 49.9522 84.0907 51.3924 84.3212 52.416C84.0907 53.2225 81.6732 54.3861 79.7633 55.4527H78.244C78.7681 53.4156 78.0477 54.2752 78.244 52.416C78.0477 50.5891 79.7171 49.9522 80.5223 50.1358Z" fill="#181818"/>
<path d="M17.4718 25.8267H22.79C27.2719 24.912 28.819 22.4515 33.425 22.7889C36.299 22.4515 37.7733 24.5304 40.2618 24.3075C42.0172 24.5304 45.0033 22.3128 48.6167 22.0298C51.6198 22.3128 53.2751 24.3232 55.454 25.0683C57.4108 26.0894 59.9638 26.0464 62.2902 25.8267C62.5896 27.986 62.6624 29.1387 62.2902 31.1448C62.6624 32.4292 64.8907 31.771 64.5691 34.1835C64.8907 37.3132 62.0129 36.7599 62.2902 37.9823L61.5312 48.6173C62.0503 49.7852 64.7115 49.9581 64.5691 51.6559C64.7115 54.9477 61.747 53.9146 62.2902 56.2132C62.0857 57.9965 61.942 61.6674 62.2902 61.5313C56.2238 61.6674 20.223 61.7028 18.2321 61.5313C18.5322 57.7185 18.3638 58.2547 18.2321 56.2132C18.6044 54.8439 15.1878 53.9089 15.1922 51.6559C15.1878 49.5783 17.2389 49.6815 17.4718 47.8565V37.2221C17.3098 36.1016 14.2167 35.4089 14.4339 33.425C14.4529 31.072 17.2034 31.374 17.4718 29.6256C17.2034 29.1033 17.2743 26.5395 17.4718 25.8267Z" fill="#F2E6CF"/>
<path d="M40.2618 51.6558C41.9463 51.5178 44.719 52.5376 47.0973 53.1744C50.9012 54.4108 54.5995 53.6707 56.9734 53.9346C58.2021 54.3923 40.4346 54.5316 40.2618 54.6937C40.5074 51.1025 40.4346 51.4482 40.2618 51.6558Z" fill="#181818"/>
<path d="M37.9822 56.2131C37.8816 55.2205 38.7753 54.6006 39.5014 54.6937C40.9802 54.6006 41.8741 55.2205 41.7811 56.2131C41.8741 56.7524 40.9802 57.3721 39.5014 57.7323C38.7753 57.3721 37.8816 56.7524 37.9822 56.2131Z" fill="#181818"/>
<path d="M38.7424 51.6558C37.3883 51.5178 34.6157 52.5376 31.905 53.1744C28.4341 54.4108 24.7359 53.6707 22.0297 53.9346C21.1333 54.3923 38.8988 54.5316 38.7424 54.6937C38.8279 51.1025 38.8988 51.4482 38.7424 51.6558Z" fill="#181818"/>
<path d="M45.578 161.803C45.7609 151.969 54.0752 143.959 64.5691 144.332C74.5907 143.959 82.905 151.969 82.8018 161.803C82.905 171.731 74.5907 179.742 64.5691 180.035C54.0752 179.742 45.7609 171.731 45.578 161.803Z" fill="#F2E6CF"/>
<path d="M96.4747 118.505C96.821 108.998 105.135 100.988 115.466 101.033C125.651 100.989 133.965 108.998 133.698 118.505C133.965 128.761 125.651 136.771 115.466 136.736C105.135 136.774 96.821 128.761 96.4747 118.505Z" fill="#F2E6CF"/>
<path d="M145.091 161.803C144.999 151.969 153.313 143.959 163.323 144.332C173.827 143.959 182.143 151.969 182.315 161.803C182.143 171.731 173.827 179.742 163.323 180.035C153.313 179.742 144.999 171.731 145.091 161.803Z" fill="#F2E6CF"/>
</svg>
