<svg width="804" height="256" viewBox="0 0 804 256" fill="none" xmlns="http://www.w3.org/2000/svg">
<path d="M252.72 0.113854V6.03304C269.433 6.03304 275.351 13.3458 275.351 37.718V162.711C275.351 189.171 266.646 193.698 252.72 193.698V199.622H324.444V193.698C307.729 193.698 301.814 186.737 301.814 162.016V106.305C316.438 108.046 323.747 108.396 332.451 108.396C377.717 108.396 402.788 89.9437 402.788 56.8662C402.788 29.3597 380.505 0.112499 325.492 0.112499H252.724L252.72 0.113854ZM301.811 7.77627H326.534C363.092 7.77627 374.933 36.3241 374.933 57.5628C374.933 84.7208 356.129 100.74 326.534 100.74C316.087 100.74 310.863 100.39 301.811 97.2575V7.77627ZM444.566 72.8825C409.75 72.8825 382.59 102.132 382.59 139.385C382.59 176.643 410.443 203.45 449.093 203.45C470.679 203.45 484.956 196.141 499.927 176.989V167.931C482.168 187.782 473.467 193.696 456.402 193.696C439.689 193.696 406.613 179.776 407.306 124.414H497.836C499.579 95.8617 473.116 72.8801 444.564 72.8801L444.566 72.8825ZM539.263 72.8825L500.964 76.7159V82.6351C517.676 82.6351 521.514 85.7689 521.514 100.74V170.026C521.514 192.307 517.33 193.699 500.964 193.699V199.622H566.075V193.699C547.62 193.699 545.186 188.825 545.186 170.026V109.789C557.37 93.4243 568.166 85.7664 580.35 85.7664C593.579 85.7664 607.857 94.1247 607.857 113.97V178.383C607.857 189.873 603.326 193.699 586.617 193.699V199.623H716.835V193.699C698.383 193.699 695.942 188.826 695.942 170.027V109.79C708.132 93.4252 718.919 85.7672 731.111 85.7672C744.339 85.7672 758.617 94.1255 758.617 113.971V178.384C758.617 189.874 754.094 193.7 737.382 193.7V199.624H803.188V193.7C785.777 193.7 782.295 188.83 782.295 172.812V117.102C782.295 87.5061 761.054 72.8836 740.51 72.8836C724.846 72.8836 710.57 80.8925 695.945 97.6059V72.8836H690.03L651.727 76.7171V82.6362C668.442 82.6362 672.273 85.77 672.273 100.741V170.028C672.273 192.132 668.122 193.673 652.078 193.695C634.988 193.627 631.537 188.717 631.537 172.811V117.101C631.537 87.5054 610.3 72.8829 589.756 72.8829C574.092 72.8829 559.814 80.8918 545.192 97.6053V72.8829H539.268L539.263 72.8825ZM441.431 80.1937C457.101 80.1937 475.551 91.335 474.503 118.493H407.306C408.7 95.5155 420.89 80.1937 441.429 80.1937H441.431ZM519.75 217.133C518.091 217.133 511.139 218.003 509.047 226.418H505.331L504.98 228.078H508.731L503.08 256H504.858C507.107 249.996 510.269 237.474 512.204 228.078H517.378L518.323 227.246L518.484 226.418H512.681L513.111 224.518C514.062 220.255 515.836 218.634 518.206 218.634C519.865 218.634 521.129 219.863 521.679 220.928L522.668 220.451L523.149 217.844C522.553 217.292 520.656 217.133 519.75 217.133ZM252.567 218.517V219.544C256.122 219.98 255.962 219.781 255.962 223.456V235.229C255.962 242.374 258.57 246.642 266.985 246.642C272.08 246.642 277.492 243.477 277.492 234.986V223.85C277.492 223.021 277.647 222.352 277.726 221.717C277.923 220.294 279.225 219.738 281.122 219.544V218.517H271.803V219.544C273.658 219.738 275.001 220.294 275.198 221.717C275.277 222.352 275.436 223.021 275.436 223.85V234.826C275.436 241.147 272.591 244.782 267.18 244.782C261.294 244.782 259.795 240.553 259.795 235.025V223.456C259.795 219.781 259.636 219.98 263.19 219.545V218.517L252.567 218.517ZM535.18 218.517V219.544C538.736 219.98 538.58 219.781 538.58 223.456V241.231C538.58 244.9 538.735 244.707 535.18 245.142V246.166H545.804V245.142C542.252 244.707 542.409 244.9 542.409 241.231V219.779H544.816C549.245 219.779 551.372 221.834 551.372 226.262C551.372 230.607 549.084 233.563 544.143 233.486V234.275C550.189 234.634 555.323 231.553 555.323 225.867C555.323 221.121 552.084 218.517 545.527 218.517L535.18 218.517ZM402.252 224.466C398.748 224.466 395.7 226.631 395.7 229.371C395.7 232.693 397.744 233.882 399.39 234.982C403.964 237.999 405.023 239.614 405.023 241.595C405.023 243.818 403.259 245.463 401.095 245.463C398.746 245.463 396.524 244.126 396.19 240.745H395.392V245.129C395.392 245.37 395.49 245.494 395.613 245.559C397.197 246.164 398.873 246.53 400.821 246.53C404.482 246.53 408.198 244.519 408.198 240.897C408.198 238.363 407.158 236.81 403.931 234.405C400.881 232.118 398.749 230.833 398.749 228.699C398.749 226.447 400.33 225.533 402.101 225.533C404.536 225.533 405.696 227.243 405.943 229.371H406.732V225.377C406.732 225.224 406.703 225.108 406.52 225.043C405.303 224.62 403.562 224.466 402.252 224.466ZM644.347 224.466C640.843 224.466 637.799 226.631 637.799 229.371C637.799 232.693 639.838 233.882 641.485 234.982C646.061 237.999 647.122 239.614 647.122 241.595C647.122 243.818 645.355 245.463 643.194 245.463C640.845 245.463 638.623 244.126 638.289 240.745H637.491V245.129C637.491 245.37 637.586 245.494 637.704 245.559C639.293 246.164 640.967 246.53 642.92 246.53C646.578 246.53 650.292 244.519 650.292 240.897C650.292 238.363 649.259 236.81 646.025 234.405C642.978 232.118 640.843 230.833 640.843 228.699C640.843 226.447 642.431 225.533 644.195 225.533C646.634 225.533 647.797 227.243 648.037 229.371H648.831V225.377C648.831 225.224 648.802 225.108 648.619 225.043C647.402 224.62 645.66 224.466 644.347 224.466ZM727.428 224.466C724.899 231.199 721.339 241.164 720.026 243.846C719.538 244.851 718.658 245.372 717.836 245.372V246.166H723.378V245.372C722.038 245.372 721.455 244.366 721.856 243.178L723.252 239.097H731.027L732.341 243.026C732.829 244.366 732.648 245.372 730.724 245.372V246.165H737.827V245.372C736.517 245.372 736.026 244.399 735.355 242.688C734.319 239.977 731.209 230.593 729.141 224.466L727.428 224.466ZM792.621 224.466C790.095 231.199 786.524 241.164 785.214 243.846C784.724 244.851 783.842 245.372 783.02 245.372V246.166H788.571V245.372C787.225 245.372 786.65 244.366 787.044 243.178L788.449 239.097H796.225L797.526 243.026C798.014 244.366 797.835 245.372 795.917 245.372V246.165H803.015V245.372C801.703 245.372 801.22 244.399 800.548 242.688C799.51 239.977 796.404 230.593 794.33 224.466L792.621 224.466ZM283.832 224.831V225.624C285.57 225.624 286.516 226.599 287.37 227.693V242.055C287.37 242.69 287.246 243.206 287.184 243.694C287.033 244.794 286.029 245.225 284.565 245.372V246.166H292.032V245.372C290.021 245.225 288.985 244.794 288.832 243.694C288.772 243.206 288.65 242.69 288.65 242.055V228.582C293.617 234.432 298.644 240.439 303.489 246.166H304.525V228.946C304.525 228.305 304.65 227.79 304.712 227.302C304.862 226.203 305.898 225.777 307.331 225.624V224.83H299.864V225.624C301.875 225.777 302.911 226.203 303.064 227.302C303.124 227.79 303.246 228.305 303.246 228.946V241.473H303.185C298.644 235.957 293.919 230.346 289.378 224.83L283.832 224.831ZM313.55 224.831V225.624C316.292 225.959 316.169 225.808 316.169 228.642V242.354C316.169 245.188 316.292 245.037 313.55 245.372V246.166H321.75V245.372C319.007 245.037 319.126 245.188 319.126 242.354V228.642C319.126 225.808 319.007 225.959 321.75 225.624V224.831H313.55ZM326.442 224.831V225.624C327.905 225.624 328.85 226.572 329.976 229.83C331.833 235.011 333.907 240.897 335.765 246.165H337.322C339.881 239.921 342.47 233.699 345.032 227.454C345.67 225.931 346.675 225.624 347.56 225.624V224.83H340.977V225.624C343.05 225.624 343.843 226.573 343.081 228.49C341.19 233.153 339.333 237.842 337.383 242.506C335.799 237.872 334.027 232.635 332.838 229.037C331.832 226.114 333.055 225.624 334.729 225.624V224.83L326.442 224.831ZM352.256 224.831V225.624C354.999 225.959 354.876 225.808 354.876 228.642V242.354C354.876 245.188 354.999 245.037 352.256 245.372V246.166H367.247L368.162 240.68H367.373C365.973 243.944 366.183 245.19 361.766 245.19C359.024 245.19 357.833 244.976 357.833 242.389V235.498H360.391C362.433 235.498 363.137 236.566 363.197 238.36H363.986V231.869H363.197C363.137 233.762 362.312 234.523 360.391 234.523H357.833V225.806H361.979C364.174 225.806 364.784 227.482 365.088 229.74H365.877V224.831L352.256 224.831ZM372.828 224.831V225.624C375.571 225.959 375.447 225.808 375.447 228.642V242.354C375.447 245.188 375.571 245.037 372.828 245.372V246.166H381.024V245.372C378.281 245.037 378.405 245.188 378.405 242.354V236.717H381.267C384.955 242.844 385.932 246.166 387.732 246.166H390.872V245.771C389.806 245.13 388.098 242.994 386.575 240.771L383.587 236.231C385.932 235.313 387.854 233.153 387.854 230.013C387.854 226.449 384.773 224.83 381.696 224.83L372.828 224.831ZM413.698 224.831V225.624C416.444 225.959 416.317 225.808 416.317 228.642V242.354C416.317 245.188 416.444 245.037 413.698 245.372V246.166H421.894V245.372C419.154 245.037 419.279 245.188 419.279 242.354V228.642C419.279 225.808 419.154 225.959 421.894 225.624V224.831H413.698ZM427.046 224.831L426.222 229.492H426.985C427.991 227.481 428.604 225.806 431.256 225.806H433.992V242.354C433.992 245.188 434.119 245.037 431.373 245.372V246.165H439.578V245.372C436.832 245.037 436.954 245.188 436.954 242.354V225.806H439.695C442.347 225.806 442.956 227.481 443.962 229.492H444.725L443.901 224.831H427.046ZM448.264 224.831V225.624C449.664 225.624 450.515 226.383 451.52 228.365L456.216 237.662V242.354C456.216 245.188 456.333 245.037 453.593 245.372V246.166H461.793V245.372C459.054 245.037 459.17 245.188 459.17 242.354V238.945C459.17 238.181 459.231 237.328 459.538 236.717L464.625 227.484C465.45 226.02 466.271 225.624 467.123 225.624V224.831H460.844V225.624C462.644 225.624 463.618 226.507 462.583 228.365L458.381 236.014L454.686 228.365C453.927 226.783 453.718 225.624 456.03 225.624V224.831H448.264ZM560.785 224.831V225.624C563.531 225.959 563.408 225.808 563.408 228.642V242.354C563.408 245.188 563.531 245.037 560.785 245.372V246.166H575.78L576.695 240.68H575.902C574.502 243.944 574.718 245.19 570.295 245.19C567.555 245.19 566.366 244.976 566.366 242.389V235.498H568.925C570.966 235.498 571.668 236.566 571.726 238.36H572.519V231.869H571.726C571.669 233.762 570.845 234.523 568.925 234.523H566.366V225.806H570.512C572.706 225.806 573.308 227.482 573.612 229.74H574.41V224.831L560.785 224.831ZM581.235 224.831V225.624C582.976 225.624 583.917 226.599 584.77 227.693V242.055C584.77 242.69 584.651 243.206 584.587 243.694C584.434 244.794 583.43 245.225 581.973 245.372V246.166H589.431V245.372C587.42 245.225 586.389 244.794 586.235 243.694C586.175 243.206 586.049 242.69 586.049 242.055V228.582C591.019 234.432 596.048 240.439 600.892 246.166H601.929V228.946C601.929 228.305 602.052 227.79 602.115 227.302C602.263 226.203 603.303 225.777 604.73 225.624V224.83H597.267V225.624C599.284 225.777 600.317 226.203 600.467 227.302C600.528 227.79 600.654 228.305 600.654 228.946V241.473H600.585C596.047 235.957 591.323 230.346 586.777 224.83L581.235 224.831ZM608.542 224.831V225.624C610.282 225.624 611.224 226.599 612.076 227.693V242.055C612.076 242.69 611.961 243.206 611.894 243.694C611.741 244.794 610.736 245.225 609.279 245.372V246.166H616.742V245.372C614.731 245.225 613.696 244.794 613.542 243.694C613.485 243.206 613.36 242.69 613.36 242.055V228.582C618.327 234.432 623.355 240.439 628.199 246.166H629.236V228.946C629.236 228.305 629.359 227.79 629.422 227.302C629.569 226.203 630.611 225.777 632.041 225.624V224.83H624.574V225.624C626.591 225.777 627.625 226.203 627.779 227.302C627.836 227.79 627.961 228.305 627.961 228.946V241.473H627.896C623.356 235.957 618.635 230.346 614.089 224.83L608.542 224.831ZM654.994 224.831V225.624C656.397 225.624 657.249 226.383 658.255 228.365L662.947 237.662V242.354C662.947 245.188 663.069 245.037 660.323 245.372V246.166H668.524V245.372C665.784 245.037 665.904 245.188 665.904 242.354V238.945C665.904 238.181 665.962 237.328 666.269 236.717L671.36 227.484C672.179 226.02 673.004 225.624 673.862 225.624V224.831H667.578V225.624C669.379 225.624 670.349 226.507 669.313 228.365L665.111 236.014L661.425 228.365C660.66 226.783 660.447 225.624 662.765 225.624V224.831H654.994ZM678.853 224.831V225.624C681.601 225.959 681.476 225.808 681.476 228.642V242.354C681.476 245.188 681.601 245.037 678.853 245.372V246.166H693.817L694.737 240.68H693.969C692.569 243.944 692.755 245.19 688.332 245.19C685.622 245.19 684.433 244.978 684.433 242.844V228.642C684.433 225.808 684.311 225.959 687.057 225.624V224.831H678.853ZM697.083 224.831V225.624C698.546 225.624 699.488 226.572 700.617 229.83C702.474 235.011 704.553 240.897 706.41 246.165H707.958C710.523 239.921 713.108 233.699 715.673 227.454C716.308 225.931 717.323 225.624 718.205 225.624V224.83H711.618V225.624C713.697 225.624 714.486 226.573 713.721 228.49C711.837 233.153 709.968 237.842 708.023 242.506C706.437 237.872 704.674 232.635 703.479 229.037C702.473 226.114 703.697 225.624 705.374 225.624V224.83L697.083 224.831ZM741.643 224.831V225.624C743.377 225.624 744.325 226.599 745.177 227.693V242.055C745.177 242.69 745.051 243.206 744.99 243.694C744.837 244.794 743.834 245.225 742.371 245.372V246.166H749.839V245.372C747.827 245.225 746.792 244.794 746.638 243.694C746.575 243.206 746.456 242.69 746.456 242.055V228.582C751.418 234.432 756.456 240.439 761.3 246.166H762.332V228.946C762.332 228.305 762.458 227.79 762.518 227.302C762.669 226.203 763.702 225.777 765.138 225.624V224.83H757.67V225.624C759.681 225.777 760.717 226.203 760.871 227.302C760.934 227.79 761.053 228.305 761.053 228.946V241.473H760.992C756.452 235.957 751.729 230.346 747.189 224.83L741.643 224.831ZM770.137 224.831V225.624C772.877 225.959 772.761 225.808 772.761 228.642V242.354C772.761 245.188 772.877 245.037 770.137 245.372V246.166H778.333V245.372C775.593 245.037 775.71 245.188 775.71 242.354V228.642C775.71 225.808 775.593 225.959 778.333 225.624V224.831H770.137ZM378.399 225.806H380.745C382.97 225.806 384.8 226.968 384.8 230.29C384.8 233.736 383.579 235.745 380.927 235.745H378.399V225.806ZM492.055 225.945C485.459 225.945 480.997 233.688 480.997 238.863C480.997 242.574 482.377 246.643 487.432 246.643C494.977 246.643 498.451 237.398 498.451 233.052C498.451 229.501 497.315 225.945 492.055 225.945ZM491.704 226.89C492.333 226.89 494.817 227.047 494.817 231.157C494.817 238.025 492.418 245.454 487.914 245.454C484.99 245.454 484.631 241.744 484.631 239.691C484.631 234.552 487.435 226.89 491.704 226.89ZM727.337 228.031H727.394L730.633 237.939H723.712L727.337 228.031ZM792.526 228.031H792.591L795.817 237.939H788.9L792.526 228.031Z" fill="#F2E6CF"/>
<path d="M0 0H230.83C230.78 0.244245 230.78 113.498 230.83 115.415C230.925 202.698 127.479 255.754 112.378 255.887C97.279 255.481 2.02673 212.192 0 115.415C0.216403 113.907 0.24551 0.244245 0 0Z" fill="#F2E6CF"/>
<path d="M9.11109 9.86987H221.719C221.915 9.62246 221.915 114.153 221.719 116.174C220.478 202.705 123.309 248.276 110.859 247.534C98.3743 247.428 8.84723 202.829 9.11109 115.415C9.11742 113.975 9.1364 9.62246 9.11109 9.86987Z" fill="#F2E6CF"/>
<path d="M9.11112 74.4113C9.49141 74.5581 9.19652 9.62246 9.11109 9.86987H221.719C221.822 9.62246 221.822 44.4496 221.719 74.4113H9.11112Z" fill="#0C0C0C"/>
<path d="M21.2613 168.566C29.2758 186.056 39.3866 199.898 53.911 211.847L115.415 148.825L175.401 210.329C187.376 198.973 199.345 185.371 208.052 169.325L115.415 80.4868L21.2613 169.325V168.566Z" fill="#0C0C0C"/>
<path d="M168.566 25.8154H174.642C178.576 24.7144 180.123 22.2561 184.512 22.0201C187.6 22.2561 189.073 24.3341 191.346 24.2968C193.316 24.3348 196.299 22.1176 199.699 22.0201C202.914 22.1176 204.567 24.1252 206.532 25.0572C208.702 25.8925 211.254 25.8483 214.125 25.8154C213.879 27.787 213.949 28.9392 214.125 30.3724C213.949 32.2283 216.179 31.5715 216.403 34.1684C216.179 37.1113 213.302 36.5564 213.366 37.9656V48.5958C213.341 49.5779 216 49.7507 215.645 51.6332C216 54.7381 213.035 53.7055 213.366 56.1884C213.373 57.7843 213.231 61.4548 213.366 61.5042C207.516 61.4536 170.754 61.7914 169.326 61.5042C169.064 57.8089 169.67 58.0418 170.086 56.1884C169.913 54.6331 166.498 53.6984 166.289 50.8725C166.498 49.3691 168.546 49.473 168.566 47.8354V37.2057C168.617 35.9003 165.528 35.2067 165.529 33.4103C165.764 30.8729 168.511 31.1748 168.566 29.6125C168.509 28.9051 168.585 26.3424 168.566 25.8154Z" fill="#F2E6CF"/>
<path d="M192.106 50.8725C193.243 51.3084 196.016 52.3279 198.939 53.1511C202.194 54.2002 205.892 53.4604 208.81 53.9109C209.493 54.183 191.734 54.3204 192.106 54.6696C191.805 50.8927 191.734 51.2401 192.106 50.8725Z" fill="#0C0C0C"/>
<path d="M189.069 55.4283C189.181 55.0106 190.074 54.39 191.346 54.6696C192.278 54.39 193.172 55.0106 192.865 55.4283C193.172 56.54 192.278 57.1614 191.346 56.9482C190.074 57.1614 189.181 56.54 189.069 55.4283Z" fill="#0C0C0C"/>
<path d="M189.828 50.8725C188.689 51.3084 185.916 52.3279 182.993 53.1511C179.738 54.2002 176.04 53.4604 173.123 53.9109C172.441 54.183 190.198 54.3204 189.828 54.6696C190.127 50.8927 190.198 51.2401 189.828 50.8725Z" fill="#0C0C0C"/>
<path fill-rule="evenodd" clip-rule="evenodd" d="M72.1338 64.5406C72.945 66.7856 74.6344 68.2751 77.4496 68.3377C82.5439 68.2745 87.5048 64.4654 90.3579 62.2627C92.825 60.6562 95.2333 58.8901 94.9138 55.4283V56.9482C94.8024 56.6394 98.828 52.6226 108.581 55.4283C111.505 56.6931 123.309 63.3225 126.045 64.5406C128.054 65.3315 135.742 70.8454 148.065 69.0964C147.756 68.7193 166.096 66.1959 161.733 47.0772C159.07 33.8082 159.977 32.8503 160.973 28.8525C160.661 28.3134 149.877 25.8899 150.343 41.0027C145.49 41.3349 139.522 44.8662 143.509 53.9109C144.986 51.7917 147.109 49.298 150.343 49.355C151.853 49.298 153.784 51.9335 154.141 53.9109C154.191 58.5781 149.444 60.6562 143.509 59.9855C140.562 59.1945 137.807 55.8839 133.639 53.151C134.407 52.5562 135.065 50.1295 135.158 49.355C135.065 46.7695 133.017 45.6635 131.361 44.7985C131.902 44.0354 132.476 42.9276 132.121 41.7614C132.476 40.1916 129.78 40.3306 129.082 39.484C129.169 39.0145 129.169 39.3607 129.082 38.7241C129.169 35.7236 129.6 34.2011 123.768 34.1682C124.46 31.6043 123.885 29.8384 122.25 28.8525H117.694C115.221 28.0369 117.803 27.1762 115.415 25.0571C113.283 22.8184 109.775 24.873 110.099 25.0571C109.775 22.9684 108.463 21.4574 106.303 21.2613C104.94 21.4574 103.43 21.5612 102.506 22.02L100.988 23.5385C98.6844 23.3962 98.1452 21.4574 95.6736 21.2613C93.185 21.4574 92.1777 23.3962 91.1165 24.2967C89.5175 23.8474 89.3011 22.4275 87.3206 22.7787C85.7064 22.4275 85.311 23.8474 85.0421 24.2967C83.2628 26.1323 83.3678 27.8192 81.2455 28.8525L80.4869 27.3338C80.1851 27.0497 80.1591 26.9541 80.4869 26.5751C76.7562 28.4866 69.1307 45.8691 69.0965 49.355C69.1282 52.8282 72.0831 51.3419 72.1338 54.6696C72.0831 57.1247 68.9194 58.6833 69.0965 60.7442C68.9194 62.8373 71.6149 63.9806 73.6524 63.7813L72.1338 64.5406Z" fill="#F2E6CF"/>
<path d="M80.4869 50.1138C80.3136 49.9303 84.0538 51.3698 84.2841 52.393C84.0538 53.1991 81.6373 54.3622 79.7282 55.4284H78.2096C78.7335 53.3921 78.0134 54.2514 78.2096 52.393C78.0134 50.5668 79.6821 49.9303 80.4869 50.1138Z" fill="#0C0C0C"/>
<path d="M17.4642 25.8154H22.78C27.2599 24.9011 28.8063 22.4416 33.4103 22.7789C36.283 22.4416 37.7567 24.5196 40.2441 24.2968C41.9987 24.5196 44.9835 22.303 48.5953 22.0202C51.5971 22.303 53.2517 24.3125 55.4297 25.0573C57.3855 26.0779 59.9374 26.035 62.2628 25.8154C62.5621 27.9737 62.6349 29.1259 62.2628 31.1311C62.6349 32.415 64.8622 31.757 64.5407 34.1684C64.8622 37.2968 61.9856 36.7437 62.2628 37.9656L61.5042 48.5959C62.0231 49.7633 64.6831 49.9362 64.5407 51.6332C64.6831 54.9236 61.7199 53.891 62.2628 56.1885C62.0584 57.971 61.9148 61.6403 62.2628 61.5042C56.1991 61.6403 20.2141 61.6757 18.2241 61.5042C18.5241 57.6931 18.3557 58.2291 18.2241 56.1885C18.5962 54.8198 15.1811 53.8852 15.1856 51.6332C15.1811 49.5565 17.2313 49.6597 17.4642 47.8355V37.2057C17.3022 36.0858 14.2105 35.3934 14.4275 33.4103C14.4465 31.0584 17.1959 31.3602 17.4642 29.6126C17.1959 29.0905 17.2667 26.5279 17.4642 25.8154Z" fill="#F2E6CF"/>
<path d="M40.2441 51.6331C41.9279 51.4952 44.6994 52.5145 47.0766 53.1511C50.8789 54.3869 54.5755 53.6471 56.9483 53.9109C58.1765 54.3684 40.4168 54.5077 40.2441 54.6696C40.4896 51.08 40.4168 51.4256 40.2441 51.6331Z" fill="#0C0C0C"/>
<path d="M37.9655 56.1884C37.8649 55.1962 38.7583 54.5766 39.4841 54.6696C40.9622 54.5766 41.8557 55.1962 41.7627 56.1884C41.8557 56.7275 40.9622 57.3469 39.4841 57.7069C38.7583 57.3469 37.8649 56.7275 37.9655 56.1884Z" fill="#0C0C0C"/>
<path d="M38.7254 51.6331C37.3719 51.4952 34.6005 52.5145 31.891 53.1511C28.4216 54.3869 24.725 53.6471 22.02 53.9109C21.124 54.3684 38.8817 54.5077 38.7254 54.6696C38.8108 51.08 38.8817 51.4256 38.7254 51.6331Z" fill="#0C0C0C"/>
<path d="M45.558 161.732C45.7408 151.902 54.0515 143.895 64.5407 144.269C74.5579 143.895 82.8686 151.902 82.7655 161.732C82.8686 171.656 74.5579 179.663 64.5407 179.956C54.0515 179.663 45.7408 171.656 45.558 161.732Z" fill="#F2E6CF"/>
<path d="M96.4323 118.453C96.7785 108.951 105.089 100.944 115.415 100.989C125.596 100.944 133.906 108.951 133.639 118.453C133.906 128.704 125.596 136.711 115.415 136.676C105.089 136.714 96.7785 128.704 96.4323 118.453Z" fill="#F2E6CF"/>
<path d="M145.028 161.732C144.935 151.902 153.246 143.895 163.252 144.269C173.75 143.895 182.063 151.902 182.234 161.732C182.063 171.656 173.75 179.663 163.252 179.956C153.246 179.663 144.935 171.656 145.028 161.732Z" fill="#F2E6CF"/>
</svg>
