<svg width="1276" height="256" viewBox="0 0 1276 256" fill="none" xmlns="http://www.w3.org/2000/svg">
<path d="M0 0H255.874V256H0V0Z" fill="#F2E6CF"/>
<path d="M704.074 52.9314C708.183 51.9486 712.326 50.6457 716.589 50.6971C718.949 50.8057 719.303 53.5829 719.514 55.4057C720.086 63.9731 720.383 72.5565 720.406 81.1429C720.783 89.3143 720.732 97.4971 720.891 105.68C725.509 102.131 730.034 98.2971 735.503 96.12C744.251 92.2743 754.749 92.2286 763.28 96.6914C772.451 101.28 778.857 110.137 782.08 119.703C785.097 128.777 785.823 138.497 785.314 148C784.497 159.103 781.48 170.337 774.897 179.457C771 184.743 765.88 189.377 759.623 191.623C749.6 195.291 737.897 193.977 728.903 188.246C726.051 186.463 723.651 184.08 721.04 181.989C719.989 185.274 719.194 188.64 718.171 191.943C713.366 191.994 708.514 192.331 703.754 191.549C705.674 183.863 705.72 175.903 705.931 168.029C706.286 140.4 705.903 112.766 705.789 85.1371C705.177 74.4057 706.074 63.5543 704.074 52.9314ZM815.663 54.5428C818.734 53.5816 822.048 53.7498 825.006 55.0171C827.686 56.738 829.743 59.2738 830.874 62.2514C832.852 68.6457 827.657 75.8228 821.149 76.5543C816.12 77.1143 810.594 74.1714 809.034 69.1886C806.966 63.5543 810.149 56.7714 815.663 54.5428ZM362.131 66.1143C369.44 61.2229 377.96 57.5429 386.869 57.4286C395.937 57.2629 405.337 57.9086 413.68 61.7714C417.097 63.3371 420.543 64.9829 423.383 67.4971C421.309 71.08 418.571 74.2057 415.983 77.4114C412.663 75.44 409.383 73.32 405.697 72.0686C396.714 68.8971 386.503 68.2171 377.543 71.8286C370.046 74.68 363.92 80.5029 360.074 87.48C357.417 92.3943 355.194 97.6114 354.086 103.114C353.097 108.486 352.783 113.954 352.697 119.406C352.406 126.651 352.069 133.92 352.509 141.16C353.783 151.223 357.274 161.354 364.137 169.006C370.149 175.92 379.029 179.977 388.069 180.886C392.829 181.149 397.691 181.211 402.343 180.006C408 178.766 413.011 175.794 418.24 173.451C421.291 176.48 423.943 179.886 426.434 183.383C422.534 185.578 418.504 187.534 414.366 189.24C403.211 193.76 390.84 193.857 379.034 192.72C370.543 190.954 362.663 186.663 356.114 181.029C348.56 174.457 343.029 165.737 339.697 156.331C337.451 149.994 336.354 143.309 335.76 136.629C335.526 131.663 334.971 126.68 335.531 121.709C335.703 112.297 337.229 102.806 340.983 94.12C345.503 83.2229 352.286 72.8857 362.131 66.1143Z" fill="#F2E6CF"/>
<path d="M76.0114 63.7943C77.1372 63.5428 78.2571 63.2571 79.4171 63.2228C84.9143 63.1085 90.4057 63.4514 95.8972 63.6228C96.7657 63.4857 97.0686 64.2914 97.3886 64.92C105.76 82.0743 114.011 99.2971 122.463 116.417C124.28 119.971 125.909 123.629 127.966 127.057C129.697 124.246 131.103 121.246 132.629 118.32C142.12 100.04 151.097 81.4914 160.44 63.1371C166.623 63.3257 172.869 62.7143 179 63.7257C177.886 67.2285 175.88 70.3428 174.291 73.64C162.029 97.1371 149.434 120.457 137.057 143.891C136.61 144.799 136.399 145.806 136.446 146.817C136.469 163.566 136.446 180.32 136.457 197.069C130.486 197.074 124.514 197.109 118.543 197.046C118.606 180.697 118.526 164.349 118.583 148C118.56 146.246 118.783 144.366 117.811 142.806C106.406 121.411 94.96 100.04 83.6171 78.6171C81.1086 73.6628 78.2743 68.8685 76.0114 63.7943Z" fill="#0C0C0C"/>
<path d="M1065.45 71.1371C1070.35 69.56 1075.38 68.3943 1080.45 67.4857C1079.71 76.8171 1079.02 86.1543 1078.7 95.5143C1086.66 95.7028 1094.62 95.7029 1102.58 96.0286C1101.2 99.6057 1099.74 103.15 1098.19 106.657C1091.49 106.68 1084.78 106.629 1078.08 106.68C1078.06 115.314 1078.15 123.943 1078.15 132.577C1078.07 139.434 1078.56 146.28 1078.45 153.143C1078.63 160.914 1078.23 168.726 1079.11 176.469C1079.33 179.691 1082.23 181.96 1085.14 182.783C1090 183.897 1095.07 183.503 1099.89 182.326C1101.18 185.13 1101.77 188.207 1101.61 191.291C1097.25 193.566 1092.24 194.006 1087.42 194.434C1080.62 194.709 1073.04 193.629 1068.15 188.411C1064.13 184.674 1064.45 178.731 1063.98 173.709C1063.49 162.674 1063.69 151.617 1063.63 140.571C1063.61 129.274 1063.66 117.983 1063.6 106.686C1059.35 106.629 1055.11 106.669 1050.88 106.663C1050.72 102.971 1050.74 99.2743 1050.86 95.5828C1055.02 95.5486 1059.19 95.64 1063.35 95.52C1063.99 87.3886 1064.13 79.2 1065.45 71.1371ZM473.971 93.5371C477.297 93.1143 480.657 93.2743 484 93.3028C487.96 93.4343 492.023 93.2171 495.84 94.4743C504.6 97.4857 512.309 103.566 516.994 111.589C520.983 118.509 523.789 126.274 524.109 134.314C524.606 145.114 524.966 156.229 521.583 166.646C518.434 176.417 511.543 185.126 502.326 189.794C493.16 194.531 482.189 195.417 472.274 192.749C463.36 190.406 455.623 184.531 450.509 176.926C444.823 168.771 442.903 158.674 442.554 148.909C442.326 139.463 442.143 129.743 445.286 120.691C448.251 111.766 453.983 103.606 462.017 98.5714C465.709 96.3086 469.697 94.3657 473.971 93.5371ZM550.497 96.5371C554.932 95.1122 559.454 93.9727 564.034 93.1257C565.908 97.4145 567.053 101.986 567.423 106.651C570.549 105.029 572.989 102.429 575.903 100.48C582.554 95.72 590.634 92.6914 598.891 93.0457C600.754 93.1714 602.56 93.7657 604.229 94.6057C607.069 96.0286 609.966 97.4914 612.28 99.7257C614.72 102.029 616.251 105.069 617.931 107.926C621.657 106.263 624.543 103.297 627.886 101.034C633.686 97.0286 640.297 93.8514 647.394 93.16C653.891 92.4171 660.691 94.5943 665.446 99.12C667.594 101.183 669.88 103.28 671.069 106.08C672.223 108.811 672.577 111.794 672.846 114.726C673.977 130.171 673.2 145.68 673.806 161.143C673.806 171.423 673.88 181.697 673.886 191.977C668.743 192.051 663.606 192.086 658.469 191.943C658.486 176.531 658.474 161.126 658.474 145.714C658.429 135.806 658.663 125.88 657.851 115.994C657.641 114.419 657.112 112.903 656.295 111.539C655.479 110.175 654.392 108.992 653.103 108.063C650.103 106.086 646.326 106.303 642.903 106.497C636.829 107.069 631.749 110.874 627.166 114.583C624.994 116.417 622.737 118.149 620.623 120.046C619.966 120.566 620.171 121.509 620.097 122.24C620.103 145.48 620.137 168.726 620.08 191.971C614.966 192.057 609.846 192.08 604.737 191.949C604.743 173.869 604.749 155.794 604.731 137.714C604.691 133.326 604.823 128.926 604.463 124.549C604.189 120.086 604.646 115.297 602.554 111.194C599.434 106.777 593.251 105.851 588.291 107.074C580.56 108.931 573.891 113.697 568.046 118.92C567.097 119.526 567.189 120.703 567.183 121.68C567.229 145.097 567.166 168.52 567.211 191.937C562.726 192.074 558.234 192.086 553.754 191.926C553.331 167.954 553.629 143.96 552.977 119.983C552.84 114.543 552.846 109.086 552.126 103.68C551.691 101.274 550.903 98.9486 550.497 96.5371ZM812.086 95.6914C817.011 94.9714 821.914 94.12 826.8 93.1714C827.423 106.669 827.206 120.2 827.326 133.709C827.349 153.126 827.331 172.543 827.331 191.954C822.234 192.069 817.137 192.069 812.04 191.96C811.88 164.166 812.017 136.366 811.971 108.571C812 104.28 811.88 99.9828 812.086 95.6914ZM963.211 103.76C973.446 98.12 984.663 93.2343 996.571 93.32C1000.75 93.3486 1004.99 93.1657 1009.15 93.8057C1019.54 95.7714 1028.42 105.114 1028.69 115.891C1029.25 131.92 1028.58 147.966 1028.74 164C1028.86 168.766 1028.69 173.617 1029.86 178.274C1030.55 181.417 1033.48 183.154 1035.73 185.137C1033.52 188.16 1031.71 191.566 1028.83 194.023C1027.16 195.423 1025.09 193.903 1023.68 192.874C1019.95 190.114 1017.42 186.103 1015.37 182.017C1012.06 183.817 1009.53 186.686 1006.31 188.623C1000.71 192.177 994.097 194.291 987.434 194.194C981.457 194.331 975.331 193.337 969.949 190.669C961.206 186.051 956.349 175.983 956.6 166.297C956.526 156.989 961.246 147.926 968.72 142.434C977.669 135.754 989.04 133.554 999.954 132.754C1004.94 132.314 1009.96 132.291 1014.97 132.074C1015.17 127.189 1014.79 122.297 1014.1 117.463C1013.51 113.354 1011.55 109.149 1007.78 107.086C1003.26 104.703 997.914 104.646 992.971 105.36C983.646 106.497 974.891 110.48 967.303 115.914C965.28 113.029 963.131 110.211 961.411 107.137C960.571 105.6 961.931 104.389 963.211 103.76ZM1151.66 93.5257C1157.61 92.6989 1163.66 92.8669 1169.55 94.0228C1178.33 96.1287 1186.06 101.336 1191.3 108.686C1195.51 114.571 1198.26 121.463 1199.57 128.566C1200.58 135.373 1200.96 142.259 1200.71 149.137C1200.45 160.314 1197.01 171.554 1190.19 180.491C1184.68 187.646 1176.14 191.937 1167.37 193.526C1156.71 195.389 1145.15 193.503 1136.25 187.171C1128.43 181.606 1123.45 172.897 1120.74 163.84C1119.28 159.274 1119.02 154.457 1118.68 149.714C1118.53 141.726 1118.38 133.64 1119.99 125.771C1122.21 116.851 1126.61 108.274 1133.43 102.006C1138.47 97.341 1144.85 94.375 1151.66 93.5257ZM1226.84 96.8C1231.42 95.5086 1235.98 94.1028 1240.63 93.0514C1243.09 97.7486 1243.57 103.097 1243.83 108.297C1246.19 106.531 1248.17 104.326 1250.26 102.257C1256.93 95.6514 1266.56 91.6571 1276 93.3486V94.5314C1273.93 99.0686 1272.64 103.909 1270.7 108.491C1270.42 109.337 1269.26 109.063 1268.61 109.223C1264.49 109.32 1260.13 109.217 1256.42 111.291C1252.78 113.424 1249.57 116.223 1246.97 119.543C1244.43 122.737 1244.93 127.046 1244.74 130.851C1244.5 136.377 1244.38 141.903 1244.44 147.429C1244.42 162.274 1244.45 177.114 1244.42 191.954C1239.31 192.069 1234.2 192.069 1229.09 191.954C1229.01 175.4 1229.09 158.84 1229.06 142.286C1228.97 131.04 1229.14 119.777 1228.56 108.543C1228.45 104.56 1227.17 100.749 1226.84 96.8ZM857.297 96.9886C861.829 95.56 866.417 93.8914 871.211 93.8C872.935 98.2193 874.061 102.849 874.56 107.566C878.606 105.063 882.017 101.663 886.171 99.3086C894.16 94.5657 904.131 91.32 913.24 94.72C918.583 96.6057 923.777 99.64 927.011 104.423C929.657 107.886 930.268 112.36 930.543 116.583C931.349 131.611 931.091 146.669 931.28 161.709C931.269 171.789 931.474 181.863 931.503 191.937C926.389 192.086 921.269 192.069 916.154 191.949C916.149 175.394 915.823 158.84 915.789 142.28C915.566 133.069 916.051 123.806 914.937 114.64C913.554 110.246 909.303 106.571 904.583 106.451C901.097 106.309 897.486 106.177 894.16 107.406C886.846 110.131 880.257 114.491 874.297 119.486C874.126 143.64 874.286 167.806 874.217 191.966C869.737 192.057 865.257 192.08 860.783 191.937C860.766 178.24 860.423 164.549 860.354 150.851C860.229 136.754 860.337 122.651 859.6 108.571C859.446 104.6 858.143 100.834 857.297 96.9886Z" fill="#F2E6CF"/>
<path d="M476.24 105.606C482.457 104.137 489.343 104.629 494.926 107.903C498.906 110.163 502.031 113.671 503.817 117.886C506.76 124.663 507.263 132.154 507.589 139.44C507.709 146.44 507.869 153.486 506.897 160.44C506.131 165.977 503.949 171.423 500.154 175.583C495.463 180.48 488.297 182.257 481.703 181.829C474.789 181.349 467.583 178.154 464.069 171.914C460.851 165.966 459.583 159.194 458.777 152.549C458.291 147.051 457.811 141.52 458.331 136.006C458.789 128.6 459.371 120.743 463.411 114.286C466.251 109.76 471.103 106.817 476.24 105.606ZM1152.81 105.491C1157.82 104.817 1163.09 104.691 1167.93 106.337C1172.53 108.411 1176.5 111.937 1179.19 116.206C1182.31 121.897 1183.01 128.509 1183.53 134.874C1183.87 140.96 1183.82 147.063 1183.52 153.149C1183.12 158.269 1182.89 163.537 1180.94 168.354C1179.27 172.417 1176.65 176.28 1172.78 178.503C1167.05 181.829 1160.01 182.549 1153.6 181.114C1149.08 180.126 1144.73 177.863 1141.74 174.274C1138.61 170.674 1137.11 166 1136.23 161.394C1134.97 154.526 1134.98 147.526 1134.79 140.571C1134.95 133.211 1134.58 125.577 1137.47 118.629C1139.8 111.983 1145.61 106.28 1152.81 105.491ZM739.657 107.211C743.863 106.863 748.183 106.754 752.331 107.674C757.44 108.771 761.737 112.4 764.349 116.84C767.554 122.257 768.726 128.623 769.011 134.84C769.606 140.189 768.943 145.554 768.617 150.897C767.846 157.846 766.589 164.966 763.006 171.074C760.486 175.389 756.32 178.743 751.446 179.977C741.377 182.549 730.268 179.143 722.834 172.017C721.88 171.051 720.48 170.149 720.743 168.589C720.743 153.914 720.754 139.246 720.743 124.571C720.76 122.743 720.617 120.909 720.851 119.091C725.869 113.566 731.989 108.286 739.657 107.211ZM988.737 144.137C993.331 142.851 998.126 142.577 1002.86 142.131C1006.65 141.8 1010.39 142.663 1014.19 142.543C1014.09 150.394 1014.23 158.269 1013.59 166.097C1013.37 170.52 1010.23 174.023 1006.99 176.709C1003.13 179.8 998.657 182.497 993.657 183.103C989.48 183.474 985.12 183.314 981.206 181.674C977.817 180.274 975.6 177.063 974.24 173.789C972.863 170.503 973.314 166.857 973.394 163.394C973.571 160.269 973.554 156.92 975.229 154.154C978.154 149.166 983.229 145.703 988.737 144.137Z" fill="#0C0C0C"/>
</svg>
