<svg width="64" height="57" viewBox="0 0 64 57" fill="none" xmlns="http://www.w3.org/2000/svg">
<path d="M4.83849 48.8519L7.66094 53.7115C8.24742 54.7346 9.09049 55.5385 10.0802 56.1231L20.1604 38.7308H0C0 39.8635 0.293242 40.9962 0.879725 42.0192L4.83849 48.8519Z" fill="#0066DA"/>
<path d="M32 18.2692L21.9198 0.876923C20.9301 1.46154 20.0871 2.26538 19.5006 3.28846L0.879725 35.4423C0.304028 36.4433 0.000766507 37.5769 0 38.7308H20.1604L32 18.2692Z" fill="#00AC47"/>
<path d="M53.9198 56.1231C54.9095 55.5385 55.7526 54.7346 56.3391 53.7115L57.512 51.7019L63.1203 42.0192C63.7068 40.9962 64 39.8635 64 38.7308H43.8382L48.1283 47.1346L53.9198 56.1231Z" fill="#EA4335"/>
<path d="M32 18.2692L42.0802 0.876923C41.0905 0.292308 39.9542 0 38.7812 0H25.2188C24.0458 0 22.9095 0.328846 21.9198 0.876923L32 18.2692Z" fill="#00832D"/>
<path d="M43.8396 38.7308H20.1604L10.0802 56.1231C11.0699 56.7077 12.2062 57 13.3792 57H50.6208C51.7938 57 52.9301 56.6712 53.9198 56.1231L43.8396 38.7308Z" fill="#2684FC"/>
<path d="M53.8099 19.3654L44.4994 3.28846C43.9129 2.26538 43.0699 1.46154 42.0802 0.876923L32 18.2692L43.8396 38.7308H63.9633C63.9633 37.5981 63.6701 36.4654 63.0836 35.4423L53.8099 19.3654Z" fill="#FFBA00"/>
</svg>
