<svg viewBox="0 0 64 48" fill="none" xmlns="http://www.w3.org/2000/svg">
<path d="M4.36364 48H14.5455V23.2791L0 12.3728V43.6375C0 46.0514 1.95636 48 4.36364 48Z" fill="#4285F4"/>
<path d="M49.4545 48H59.6364C62.0509 48 64 46.0441 64 43.6375V12.3728L49.4545 23.2791" fill="#34A853"/>
<path d="M49.4545 4.37489V23.2791L64 12.3728V6.55614C64 1.16117 57.84 -1.9144 53.5273 1.32113" fill="#FBBC04"/>
<path d="M14.5455 23.2791V4.37489L32 17.4624L49.4545 4.37489V23.2791L32 36.3666" fill="#EA4335"/>
<path d="M0 6.55614V12.3728L14.5455 23.2791V4.37489L10.4727 1.32113C6.15273 -1.9144 0 1.16117 0 6.55614Z" fill="#C5221F"/>
</svg>
