<svg viewBox="0 0 64 64" fill="none" xmlns="http://www.w3.org/2000/svg">
<path d="M13.4924 40.4586C13.4924 44.1783 10.4885 47.1847 6.77168 47.1847C3.05489 47.1847 0.0509149 44.1783 0.0509149 40.4586C0.0509149 36.7389 3.05489 33.7325 6.77168 33.7325H13.4924V40.4586ZM16.8528 40.4586C16.8528 36.7389 19.8568 33.7325 23.5736 33.7325C27.2904 33.7325 30.2944 36.7389 30.2944 40.4586V57.2739C30.2944 60.9936 27.2904 64 23.5736 64C19.8568 64 16.8528 60.9936 16.8528 57.2739V40.4586Z" fill="#E01E5A"/>
<path d="M23.5736 13.4522C19.8568 13.4522 16.8528 10.4459 16.8528 6.72611C16.8528 3.00637 19.8568 0 23.5736 0C27.2904 0 30.2944 3.00637 30.2944 6.72611V13.4522H23.5736ZM23.5736 16.8662C27.2904 16.8662 30.2944 19.8726 30.2944 23.5924C30.2944 27.3121 27.2904 30.3185 23.5736 30.3185H6.72076C3.00398 30.3185 0 27.3121 0 23.5924C0 19.8726 3.00398 16.8662 6.72076 16.8662H23.5736Z" fill="#36C5F0"/>
<path d="M50.5076 23.5924C50.5076 19.8726 53.5115 16.8662 57.2283 16.8662C60.9451 16.8662 63.9491 19.8726 63.9491 23.5924C63.9491 27.3121 60.9451 30.3185 57.2283 30.3185H50.5076V23.5924ZM47.1472 23.5924C47.1472 27.3121 44.1432 30.3185 40.4264 30.3185C36.7096 30.3185 33.7057 27.3121 33.7057 23.5924V6.72611C33.7057 3.00637 36.7096 0 40.4264 0C44.1432 0 47.1472 3.00637 47.1472 6.72611V23.5924Z" fill="#2EB67D"/>
<path d="M40.4264 50.5478C44.1432 50.5478 47.1472 53.5541 47.1472 57.2739C47.1472 60.9936 44.1432 64 40.4264 64C36.7096 64 33.7057 60.9936 33.7057 57.2739V50.5478H40.4264ZM40.4264 47.1847C36.7096 47.1847 33.7057 44.1783 33.7057 40.4586C33.7057 36.7389 36.7096 33.7325 40.4264 33.7325H57.2792C60.996 33.7325 64 36.7389 64 40.4586C64 44.1783 60.996 47.1847 57.2792 47.1847H40.4264Z" fill="#ECB22E"/>
</svg>
